<svg width="154" height="227" viewBox="0 0 154 227" fill="none" xmlns="http://www.w3.org/2000/svg">
<g clip-path="url(#clip0)">
<path d="M172.259 135.936C170.241 125.22 127.119 130.362 118.391 132.29C109.664 134.218 104.205 141.221 105.96 150.492C107.715 159.763 115.268 163.927 123.996 161.998C132.756 160.1 174.308 146.618 172.259 135.936Z" fill="url(#paint0_linear)"/>
<path d="M66.1699 211.049C64.8594 203.914 69.6478 196.98 76.8478 195.48C84.0485 193.98 90.8814 198.562 92.1919 205.696C93.5023 212.831 88.714 219.766 81.5139 221.266C74.353 222.707 67.4706 218.135 66.1699 211.049Z" fill="url(#paint1_linear)"/>
<path d="M68.5531 207.686C77.259 209.673 88.2026 209.515 96.2426 207.847C105.008 205.822 109.77 197.295 107.334 191.459C104.944 185.624 98.3561 183.498 92.3921 184.893C84.8466 186.649 80.8852 186.613 73.4369 184.801C67.5148 183.343 60.8653 185.409 58.1688 191.212C55.5177 196.969 59.849 205.565 68.5531 207.686Z" fill="url(#paint2_linear)"/>
<path d="M126.245 157.898C127.174 153.505 126.28 148.905 123.492 145.435C117.927 138.537 107.898 135.73 97.9342 139.524L61.0309 153.479C51.0582 157.228 45.3489 166.007 45.6664 174.879C45.8253 179.316 48.1201 183.392 51.6982 186.103C78.8 206.466 119.155 191.188 126.245 157.898Z" fill="url(#paint3_linear)"/>
<path d="M107.662 173.03C95.791 178.366 86.6272 173.004 84.9697 167.379C83.9805 163.984 86.152 160.423 91.1129 158.416C94.203 157.171 97.4871 157.161 99.9919 156.038C102.496 154.916 104.646 152.455 107.64 150.956C112.435 148.574 116.512 149.263 118.413 152.283C121.581 157.224 119.57 167.639 107.662 173.03Z" fill="url(#paint4_linear)"/>
</g>
<path d="M119.551 152.453C122.015 165.325 72.6631 182.13 62.26 184.517C51.8903 186.945 42.8326 182.051 40.6897 170.894C38.5462 159.735 44.9678 151.195 55.3378 148.767C65.7412 146.381 117.045 139.619 119.551 152.453Z" fill="url(#paint5_linear)"/>
<path d="M41.0219 86.0173C44.8407 86.7194 48.5457 84.3087 49.2554 80.5901L58.9648 28.8985C59.6603 25.2196 57.1299 21.6234 53.2701 20.9073C49.4515 20.2051 45.7461 22.6162 45.0362 26.3347L35.3268 78.0262C34.6317 81.7051 37.1619 85.3011 41.0219 86.0173Z" fill="url(#paint6_linear)"/>
<path d="M100.129 96.974C103.947 97.6764 107.653 95.2651 108.362 91.5469L118.112 39.8688C118.808 36.1898 116.277 32.5939 112.417 31.8774C108.599 31.1755 104.893 33.5866 104.183 37.305L94.4336 88.9833C93.7236 92.7014 96.254 96.2976 100.129 96.974Z" fill="url(#paint7_linear)"/>
<path d="M85.1863 43.564C108.735 47.8192 124.294 69.7642 119.97 92.5207L116.707 109.769C112.368 132.564 93.3833 128.562 69.8343 124.306C46.2851 120.051 27.1288 117.138 31.4671 94.3426L34.7305 77.0944C39.0137 54.3241 61.6372 39.3086 85.1863 43.564Z" fill="url(#paint8_radial)"/>
<path d="M28.397 85.7293C23.6415 110.639 41.2438 131.767 67.0036 136.461C92.7631 141.155 116.933 127.581 121.649 102.659C123.651 92.0969 117.618 90.932 116.715 95.6318C115.257 103.216 114.52 112.062 111.721 113.863C106.77 117.073 88.0151 116.606 71.3272 113.601C54.8151 110.612 45.5846 105.879 42.0286 102.67C39.911 100.75 38.5118 87.428 39.2831 83.2105C40.4216 77.4927 30.2924 75.834 28.397 85.7293Z" fill="url(#paint9_linear)"/>
<path fill-rule="evenodd" clip-rule="evenodd" d="M69.998 84.9844C71.804 85.3028 73.5334 86.2131 75.1717 87.9812C76.4654 89.3775 78.7958 89.2731 80.3768 87.748C81.9578 86.223 82.1907 83.8548 80.897 82.4586C78.4878 79.8584 75.6086 78.1914 72.257 77.6004C68.9233 77.0126 65.3839 77.535 61.7664 78.8694C59.7727 79.6047 58.5179 81.7675 58.9636 83.6999C59.4093 85.6324 61.3867 86.6029 63.3804 85.8675C66.0066 84.8988 68.1741 84.6628 69.998 84.9844Z" fill="white"/>
<path fill-rule="evenodd" clip-rule="evenodd" d="M99.4013 89.8356C100.888 90.0405 102.306 90.807 103.643 92.3865C104.699 93.6338 106.621 93.4127 107.936 91.8927C109.251 90.3728 109.461 88.1295 108.405 86.8822C106.438 84.5594 104.078 83.1406 101.319 82.7603C98.5756 82.382 95.6541 83.0605 92.6619 84.5081C91.013 85.3059 89.9622 87.4094 90.315 89.2065C90.6678 91.0036 92.2906 91.8138 93.9395 91.016C96.1117 89.9651 97.9002 89.6287 99.4013 89.8356Z" fill="white"/>
<defs>
<linearGradient id="paint0_linear" x1="140.667" y1="146.895" x2="178.001" y2="211.021" gradientUnits="userSpaceOnUse">
<stop stop-color="#DAD7F9"/>
<stop offset="0.1109" stop-color="#D6D2F9"/>
<stop offset="0.2511" stop-color="#CBC2FA"/>
<stop offset="0.4069" stop-color="#B9A8FA"/>
<stop offset="0.5742" stop-color="#9F84FB"/>
<stop offset="0.7506" stop-color="#7F56FD"/>
<stop offset="0.9319" stop-color="#571EFE"/>
<stop offset="1" stop-color="#4707FF"/>
</linearGradient>
<linearGradient id="paint1_linear" x1="74.6975" y1="223.948" x2="85.6528" y2="186.88" gradientUnits="userSpaceOnUse">
<stop offset="0.2043" stop-color="#DAD7F9"/>
<stop offset="0.3135" stop-color="#CBC1FA"/>
<stop offset="0.5411" stop-color="#A288FB"/>
<stop offset="0.865" stop-color="#632EFE"/>
<stop offset="1" stop-color="#4707FF"/>
</linearGradient>
<linearGradient id="paint2_linear" x1="82.6092" y1="216.185" x2="82.9475" y2="158.241" gradientUnits="userSpaceOnUse">
<stop offset="0.2043" stop-color="#DAD7F9"/>
<stop offset="0.3135" stop-color="#CBC1FA"/>
<stop offset="0.5411" stop-color="#A288FB"/>
<stop offset="0.865" stop-color="#632EFE"/>
<stop offset="1" stop-color="#4707FF"/>
</linearGradient>
<linearGradient id="paint3_linear" x1="58.1471" y1="162.909" x2="180.36" y2="176.186" gradientUnits="userSpaceOnUse">
<stop offset="0.1205" stop-color="#DAD7F9"/>
<stop offset="0.2351" stop-color="#D7D3F9"/>
<stop offset="0.357" stop-color="#CEC6F9"/>
<stop offset="0.4822" stop-color="#BFB1FA"/>
<stop offset="0.6098" stop-color="#AA93FB"/>
<stop offset="0.7393" stop-color="#8F6CFC"/>
<stop offset="0.8696" stop-color="#6E3EFD"/>
<stop offset="1" stop-color="#4707FF"/>
</linearGradient>
<linearGradient id="paint4_linear" x1="108.199" y1="174.08" x2="97.4435" y2="150.236" gradientUnits="userSpaceOnUse">
<stop stop-color="#FF0068"/>
<stop offset="0.5117" stop-color="#9F04B7"/>
<stop offset="1" stop-color="#7306DB"/>
</linearGradient>
<linearGradient id="paint5_linear" x1="75.3149" y1="149.789" x2="99.3112" y2="209.215" gradientUnits="userSpaceOnUse">
<stop offset="0.1205" stop-color="#DAD7F9"/>
<stop offset="0.2315" stop-color="#D7D3F9"/>
<stop offset="0.3534" stop-color="#CEC5FA"/>
<stop offset="0.4803" stop-color="#BEAFFA"/>
<stop offset="0.6108" stop-color="#A891FB"/>
<stop offset="0.7442" stop-color="#8C69FC"/>
<stop offset="0.8778" stop-color="#6B39FE"/>
<stop offset="1" stop-color="#4707FF"/>
</linearGradient>
<linearGradient id="paint6_linear" x1="53.151" y1="20.7699" x2="41.2155" y2="85.9395" gradientUnits="userSpaceOnUse">
<stop stop-color="#DAD7F9"/>
<stop offset="0.3612" stop-color="#D9D5F9"/>
<stop offset="0.4912" stop-color="#D4CEF9"/>
<stop offset="0.584" stop-color="#CCC3FA"/>
<stop offset="0.6584" stop-color="#C0B2FA"/>
<stop offset="0.722" stop-color="#B19CFB"/>
<stop offset="0.7318" stop-color="#AE98FB"/>
</linearGradient>
<linearGradient id="paint7_linear" x1="112.274" y1="31.7682" x2="100.339" y2="96.9321" gradientUnits="userSpaceOnUse">
<stop stop-color="#DAD7F9"/>
<stop offset="0.3612" stop-color="#D9D5F9"/>
<stop offset="0.4912" stop-color="#D4CEF9"/>
<stop offset="0.584" stop-color="#CCC3FA"/>
<stop offset="0.6584" stop-color="#C0B2FA"/>
<stop offset="0.722" stop-color="#B19CFB"/>
<stop offset="0.7318" stop-color="#AE98FB"/>
</linearGradient>
<radialGradient id="paint8_radial" cx="0" cy="0" r="1" gradientUnits="userSpaceOnUse" gradientTransform="translate(59.6012 31.438) rotate(10.2536) scale(96.1425 93.2234)">
<stop stop-color="#8905C9"/>
<stop offset="0.0037" stop-color="#8905C9"/>
<stop offset="0.6685" stop-color="#5906F0"/>
<stop offset="1" stop-color="#4707FF"/>
</radialGradient>
<linearGradient id="paint9_linear" x1="74.9821" y1="94.5225" x2="66.3068" y2="142.352" gradientUnits="userSpaceOnUse">
<stop stop-color="#DAD7F9"/>
<stop offset="0.4111" stop-color="#D8D5F9"/>
<stop offset="0.6104" stop-color="#D3CDF9"/>
<stop offset="0.764" stop-color="#CAC0FA"/>
<stop offset="0.8936" stop-color="#BDAEFA"/>
<stop offset="1" stop-color="#AE98FB"/>
</linearGradient>
<clipPath id="clip0">
<rect width="66" height="99" fill="white" transform="translate(40 128)"/>
</clipPath>
</defs>
</svg>
