<svg width="38" height="38" viewBox="0 0 38 38" fill="none" xmlns="http://www.w3.org/2000/svg">
<path fill-rule="evenodd" clip-rule="evenodd" d="M13.667 2.31645C8.65971 2.31645 4.44299 5.37576 2.97445 9.64006L2.97073 9.65087L2.96679 9.6616C2.54522 10.8111 2.33624 12.0671 2.33624 13.0879C2.33624 15.1604 2.96034 17.0352 4.02768 18.7285L4.23914 19.0639L4.19944 19.4576C4.0164 21.2725 3.69294 23.0364 3.17119 24.743C4.91344 24.3988 6.56669 23.901 8.14405 23.1601L8.63768 22.9283L9.13362 23.1552C10.4816 23.7721 12.0639 24.091 13.667 24.091C19.9502 24.091 24.9978 19.2463 24.9978 13.2037C24.9978 10.5945 24.0533 8.20371 22.3726 6.32895L22.3585 6.31328L22.3451 6.29712C20.3455 3.89716 17.1703 2.31645 13.667 2.31645ZM0.767264 8.88072C2.57279 3.65335 7.6981 0 13.667 0C17.8656 0 21.6927 1.88698 24.1327 4.80566C26.1813 7.0982 27.3341 10.0291 27.3341 13.2037C27.3341 20.5966 21.1677 26.4075 13.667 26.4075C11.9521 26.4075 10.2203 26.1016 8.65775 25.4744C6.45005 26.4421 4.15619 26.9888 1.80057 27.3224L1.71839 27.3341H1.63537C1.23668 27.3341 0.789749 27.151 0.517418 26.7459C0.365922 26.5206 0.267492 26.2163 0.313229 25.8762C0.337879 25.6929 0.399502 25.5344 0.477617 25.4014C1.17637 23.5834 1.60223 21.6563 1.83399 19.6085C0.691358 17.6801 0 15.5021 0 13.0879C0 11.7956 0.256947 10.2764 0.767264 8.88072Z" fill="#C7CAFF"/>
<path fill-rule="evenodd" clip-rule="evenodd" d="M29.9283 11.1268C30.3098 10.6031 31.0657 10.4725 31.6167 10.8351C35.0741 13.1101 37.3094 16.7583 37.8339 20.8712L37.8427 20.9403V21.01C37.8427 21.1477 37.8599 21.2733 37.8912 21.4812L37.894 21.4998C37.9233 21.6944 37.9641 21.9652 37.9641 22.2786C37.9641 24.8045 37.2385 27.2072 36.0251 29.2708C36.0677 31.7536 36.6352 34.0123 37.7146 36.0642L37.8427 36.3077L37.8427 36.585C37.8428 36.6102 37.8429 36.6741 37.8381 36.7414C37.8333 36.8108 37.82 36.9473 37.7653 37.1032C37.7082 37.266 37.5856 37.5071 37.3231 37.7012C37.05 37.903 36.7481 37.9639 36.5079 37.9639H36.4324L36.3574 37.955C33.4995 37.6155 30.744 36.8504 28.1991 35.6549C26.4972 36.2734 24.6931 36.58 22.7958 36.58C18.4441 36.58 14.4912 34.8253 11.725 32.071C11.2622 31.6102 11.2801 30.8802 11.7649 30.4404C12.2497 30.0005 13.0178 30.0175 13.4805 30.4783C15.8109 32.7986 19.1387 34.2733 22.7958 34.2733C24.5815 34.2733 26.2382 33.9559 27.7784 33.3285L28.3085 33.1126L28.8194 33.367C30.6747 34.2906 32.6706 34.9583 34.7562 35.3675C33.9802 33.3703 33.5956 31.2342 33.5956 28.968V28.6539L33.7631 28.3832C34.8747 26.5871 35.5371 24.4808 35.5371 22.2786C35.5371 22.1409 35.5199 22.0153 35.4887 21.8074L35.4859 21.7888C35.459 21.6104 35.4225 21.3679 35.4166 21.0872C34.9562 17.614 33.0711 14.5976 30.2353 12.7316C29.6843 12.369 29.5468 11.6505 29.9283 11.1268Z" fill="#C7CAFF"/>
</svg>
