<svg width="12" height="16" viewBox="0 0 12 16" fill="none" xmlns="http://www.w3.org/2000/svg">
<path d="M4.60675 1.6141C4.56502 1.01777 4.29631 0.929174 4.07249 0.85538C3.89356 0.796388 3.66974 0.722594 3.44625 0.648909C3.22276 0.575224 2.87919 0.559042 2.46048 0.761008C2.04112 0.962755 0.978197 1.43744 0.448125 2.96166C-0.081948 4.48589 0.521841 6.33558 0.639848 6.56868C0.743096 6.84528 1.63509 10.7315 4.43162 13.0129C6.75164 14.943 7.36408 14.9023 7.96051 15.0506C8.55738 15.1987 10.0963 14.9297 10.6226 14.2777C11.1481 13.6258 11.3602 13.0157 11.3162 12.8557C11.2724 12.6958 11.0792 12.535 10.8113 12.3013C10.5587 12.0234 9.25108 10.7672 8.96809 10.5768C8.68499 10.3867 8.53636 10.2406 8.19136 10.5152C7.86179 10.7466 7.03822 11.2514 6.78329 11.41C6.5288 11.5693 6.34954 11.5102 6.0822 11.2759C5.82939 10.9987 4.90715 10.3546 4.06277 8.9111C3.41109 7.77365 3.13339 6.56603 3.06055 6.202C2.98738 5.83787 3.2271 5.72307 3.40663 5.63644C3.58604 5.55013 3.84108 5.3913 4.08059 5.27608C4.31966 5.16106 4.40994 5.04537 4.57552 4.85704C4.74033 4.66882 4.75646 4.47959 4.71238 4.31959C4.75925 4.04304 4.66309 2.31235 4.60675 1.6141Z" fill="#8805C8"/>
</svg>