<svg width="35" height="29" viewBox="0 0 35 29" fill="none" xmlns="http://www.w3.org/2000/svg">
<path fill-rule="evenodd" clip-rule="evenodd" d="M19.3763 5.68572L17.5001 7.58506L15.624 5.68568C12.6183 2.64279 7.78832 2.64294 4.7833 5.68558C1.72417 8.78262 1.72421 13.8418 4.78309 16.9382L12.0344 24.2793C13.7458 26.012 16.0305 26.7452 18.2251 26.5211L18.2379 26.5198L18.2506 26.5186C19.9605 26.3612 21.6404 25.6221 22.9758 24.2698L30.2175 16.9384C30.2174 16.9384 30.2175 16.9384 30.2175 16.9384C33.2756 13.8419 33.2757 8.78216 30.2171 5.68568C27.2115 2.64279 22.3813 2.64309 19.3763 5.68572ZM32.0121 18.6163L24.7705 25.9476C23.0151 27.7252 20.7784 28.7184 18.485 28.9294C15.542 29.23 12.4944 28.2398 10.2399 25.9573L2.98869 18.6163C-0.996231 14.5825 -0.996231 8.04198 2.98869 4.00767C6.75306 0.196182 12.7275 -0.0143368 16.7364 3.37611C16.9707 3.57432 17.1984 3.78484 17.4185 4.00767L17.5001 4.09033L17.5818 4.00767C17.8022 3.78449 18.0302 3.57365 18.265 3.37517C22.2735 -0.0142979 28.2471 0.196535 32.0116 4.00767C35.9961 8.04149 35.9961 14.5825 32.0121 18.6163Z" fill="#C7CAFF"/>
</svg>
