<svg width="66" height="44" viewBox="0 0 66 44" fill="none" xmlns="http://www.w3.org/2000/svg">
<path fill-rule="evenodd" clip-rule="evenodd" d="M33.1663 0C29.8647 0 27.2594 0.803211 25.6546 2.6651L25.5528 2.76508L25.4746 2.84177L25.4153 2.93327C25.0929 3.43062 24.846 4.15437 24.646 4.90275C24.4382 5.68 24.254 6.59192 24.0937 7.53603C23.7728 9.42596 23.5378 11.5053 23.4036 13.0203L23.4031 13.0252L23.4027 13.0301C23.2598 14.8537 23.5351 16.7716 24.4723 18.305L24.4846 18.3252L24.4979 18.3448C24.7212 18.6735 24.9569 19.1328 25.2315 19.6719L25.2529 19.7139L25.2782 19.7537C25.5901 20.2434 25.9397 20.8668 26.2104 21.3983C26.3458 21.6642 26.4553 21.8951 26.5285 22.0667C26.554 22.1267 26.5726 22.1734 26.5853 22.2078V24.3117C26.5853 24.5096 26.5449 24.6145 26.513 24.6666C26.4882 24.7073 26.4378 24.7692 26.2888 24.8277L26.2419 24.8461L26.1971 24.8691L20.0915 27.9963L20.0744 28.005L20.0577 28.0144C17.9131 29.2174 16.3651 31.6152 16.3651 34.0842V38.2067L2.47623 36.8356C2.21712 36.81 2.01987 36.5959 2.01987 36.3403V30.2265V30.1956L2.01791 30.1648C1.94561 29.0292 2.68521 27.7891 3.8953 27.1538L8.50737 24.7916C9.19636 24.4497 9.75831 23.7424 9.75831 22.827V21.1498C9.75831 20.9343 9.68664 20.7467 9.66619 20.6931L9.66406 20.6875C9.63009 20.598 9.58786 20.5046 9.54674 20.4186C9.46347 20.2444 9.35322 20.0354 9.23935 19.8242C9.16212 19.681 9.08265 19.5356 9.00389 19.3916L9.00381 19.3914L9.00374 19.3913C8.8393 19.0905 8.67797 18.7954 8.54657 18.5374L8.52997 18.5048L8.52996 18.5048C8.34863 18.1487 8.13408 17.7273 7.90778 17.3862C7.40115 16.461 7.17575 15.5063 7.33463 14.4925L7.34299 14.4391L7.34538 14.3852C7.39398 13.2879 7.54092 11.7711 7.76114 10.402C7.87123 9.71745 7.99718 9.08547 8.13372 8.56925C8.27784 8.0244 8.41002 7.7037 8.49548 7.57188L8.52335 7.52888L8.54657 7.48329L8.56945 7.43836C9.42931 6.66231 10.8115 6.15491 12.9728 6.15491C15.2476 6.15491 16.595 6.71517 17.3251 7.57529L17.3544 7.60972L17.3866 7.64141L17.3932 7.6478C17.4771 7.8099 17.5904 8.11043 17.7137 8.57172C17.8521 9.08952 17.9813 9.72308 18.098 10.4103C18.3307 11.781 18.5036 13.3053 18.6027 14.4228C18.6914 15.565 18.5037 16.6143 18.0499 17.3682C17.821 17.7098 17.6036 18.1358 17.42 18.4964C17.1562 18.9146 16.8757 19.4171 16.6579 19.8447C16.5455 20.0653 16.4437 20.2781 16.3674 20.4571C16.3298 20.5454 16.2928 20.6384 16.2635 20.727L16.2623 20.7305C16.2439 20.786 16.1874 20.9566 16.1874 21.1498V22.827C16.1874 23.2016 16.2636 23.6118 16.4941 23.9889C16.719 24.3568 17.0516 24.6288 17.4546 24.8013L20.041 26.2264C20.5257 26.4935 21.1392 26.3243 21.4112 25.8484C21.6833 25.3726 21.5109 24.7703 21.0262 24.5033L18.3899 23.0507L18.3324 23.019L18.2711 22.9949C18.2405 22.9829 18.2248 22.973 18.2186 22.9687C18.2135 22.956 18.2002 22.9147 18.2002 22.827V21.2779C18.2068 21.2616 18.2147 21.2422 18.2243 21.2197C18.2768 21.0965 18.3571 20.927 18.4583 20.7284C18.6605 20.3313 18.9215 19.8661 19.1528 19.5029L19.1781 19.4631L19.1995 19.4211C19.4096 19.0086 19.5809 18.6759 19.7397 18.4421L19.753 18.4225L19.7653 18.4023C20.5092 17.1853 20.7199 15.6788 20.6093 14.2665L20.6089 14.2616L20.6084 14.2567C20.5065 13.1055 20.3278 11.5245 20.0835 10.0854C19.9615 9.36677 19.8206 8.66842 19.6606 8.07014C19.5084 7.50072 19.3139 6.92133 19.0479 6.51099L18.9886 6.41949L18.9105 6.3428L18.8404 6.27408C17.5583 4.79256 15.5015 4.17889 12.9728 4.17889C10.4057 4.17889 8.39603 4.80959 7.03523 6.14548L6.91974 6.25885L6.84671 6.40226L6.76641 6.5599C6.51587 6.96707 6.33066 7.52368 6.18546 8.07261C6.02679 8.67247 5.88892 9.3724 5.7729 10.0938C5.5443 11.5151 5.3909 13.0805 5.33678 14.2471C5.11293 15.7642 5.48214 17.1474 6.15985 18.3671L6.18122 18.4056L6.20599 18.4421C6.3648 18.6759 6.53609 19.0086 6.7462 19.4211C6.89079 19.705 7.07675 20.0452 7.24851 20.3595C7.32337 20.4965 7.39554 20.6285 7.46041 20.7488C7.57266 20.9569 7.66341 21.1302 7.72461 21.2582C7.72857 21.2665 7.73228 21.2743 7.73576 21.2817C7.73922 21.2891 7.74244 21.296 7.74544 21.3025V22.827C7.74544 22.8698 7.73397 22.9024 7.71347 22.9326C7.69034 22.9666 7.65146 23.0024 7.59829 23.0285L7.59053 23.0324L7.58284 23.0363L2.95988 25.4041L2.95583 25.4062L2.9518 25.4083C1.15885 26.347 -0.105948 28.2472 0.00700486 30.2554V36.3403C0.00700486 37.6107 0.987221 38.6746 2.27482 38.8017L17.0931 40.2646C17.1575 40.271 17.2212 40.2712 17.2834 40.2658C17.3124 40.2683 17.3418 40.2696 17.3716 40.2696C17.9274 40.2696 18.378 39.8272 18.378 39.2815V34.0842C18.378 32.3894 19.4771 30.6237 21.0405 29.739L27.0881 26.6415C27.5788 26.438 27.9745 26.1162 28.239 25.6833C28.5058 25.2468 28.5981 24.7654 28.5981 24.3117V22.0966C28.5981 21.8923 28.5366 21.7063 28.5137 21.6372L28.5134 21.6361C28.4785 21.5306 28.4334 21.4166 28.3854 21.304C28.2884 21.0766 28.1574 20.8026 28.0108 20.5146C27.7245 19.9526 27.3554 19.292 27.0109 18.7469C26.7635 18.2612 26.4813 17.7077 26.1873 17.2702C25.5406 16.2004 25.2883 14.7401 25.4093 13.1865C25.5406 11.7051 25.7699 9.68246 26.0792 7.86089C26.2341 6.94823 26.4066 6.1011 26.5929 5.40433C26.7658 4.7575 26.9312 4.31758 27.0657 4.07432L27.1088 4.03205L27.1411 4.00035L27.1703 3.96592C28.2227 2.72612 30.1181 1.97603 33.1663 1.97603C36.1045 1.97603 38.0319 2.67453 39.2445 3.79495L39.3008 3.90557L39.324 3.95116L39.3519 3.99415C39.4938 4.21299 39.6783 4.67805 39.8698 5.40186C40.0537 6.09705 40.2219 6.9426 40.3683 7.85256C40.661 9.67261 40.8563 11.6877 40.921 13.1488L40.9234 13.2028L40.9318 13.2561C41.155 14.6807 40.8333 16.0147 40.1335 17.288C39.8425 17.7245 39.5634 18.2725 39.3187 18.7531L39.3186 18.7532L39.3186 18.7533L39.3185 18.7534L39.3008 18.7882C39.1252 19.1329 38.9084 19.5296 38.69 19.9291L38.6898 19.9293L38.6894 19.9301C38.586 20.1192 38.4823 20.309 38.3824 20.4942C38.2323 20.7726 38.0898 21.0429 37.9834 21.2655C37.9307 21.3758 37.8791 21.4902 37.8387 21.5967L37.8369 21.6016L37.8368 21.6017C37.8113 21.6688 37.7345 21.8708 37.7345 22.0966V24.3117C37.7345 25.3855 38.3934 26.2194 39.2113 26.6244L45.302 29.744L45.3058 29.7459C46.9993 30.6344 48.0612 32.3807 47.9567 34.0226L47.9547 34.0534V34.0842V39.2815C47.9547 39.8272 48.4053 40.2696 48.9611 40.2696C48.9668 40.2696 48.9725 40.2695 48.9782 40.2694C49.0192 40.2703 49.0606 40.2687 49.1024 40.2645L63.7282 38.803C65.0145 38.6745 65.993 37.6112 65.993 36.3419V30.2554C66.1059 28.2472 64.8412 26.347 63.0482 25.4083L63.0442 25.4062L63.0401 25.4041L58.4172 23.0363L58.4095 23.0324L58.4017 23.0285C58.3485 23.0024 58.3097 22.9666 58.2865 22.9326C58.266 22.9024 58.2546 22.8698 58.2546 22.827V21.3025C58.2606 21.2895 58.2675 21.2747 58.2754 21.2582C58.3366 21.1302 58.4273 20.9569 58.5396 20.7488C58.6045 20.6285 58.6766 20.4965 58.7515 20.3595C58.9233 20.0452 59.1092 19.705 59.2538 19.4211C59.4639 19.0086 59.6352 18.6759 59.794 18.4421L59.8188 18.4056L59.8402 18.3671C60.5179 17.1474 60.8871 15.7642 60.6632 14.2471C60.6091 13.0805 60.4557 11.5151 60.2271 10.0938C60.1111 9.3724 59.9732 8.67247 59.8145 8.07261C59.6693 7.52368 59.4841 6.96707 59.2336 6.5599L59.1533 6.40226L59.0803 6.25885L58.9648 6.14548C57.604 4.80959 55.5943 4.17889 53.0272 4.17889C50.4985 4.17889 48.4417 4.79256 47.1596 6.27408L47.0895 6.3428L47.0114 6.41949L46.9521 6.51099C46.6861 6.92133 46.4916 7.50072 46.3394 8.07014C46.1794 8.66842 46.0385 9.36677 45.9165 10.0854C45.6722 11.5245 45.4935 13.1055 45.3916 14.2567L45.3911 14.2616L45.3907 14.2665C45.2801 15.6788 45.4908 17.1853 46.2347 18.4023L46.247 18.4225L46.2603 18.4421C46.4191 18.6759 46.5904 19.0086 46.8005 19.4211L46.8219 19.4631L46.8472 19.5029C47.0785 19.8661 47.3395 20.3313 47.5417 20.7284C47.6429 20.927 47.7232 21.0965 47.7757 21.2197C47.7853 21.2422 47.7932 21.2616 47.7998 21.2779V22.827C47.7998 22.9147 47.7865 22.956 47.7814 22.9687C47.7752 22.973 47.7595 22.9829 47.7289 22.9949L47.6676 23.019L47.6101 23.0507L44.9738 24.5033C44.4891 24.7703 44.3167 25.3726 44.5888 25.8484C44.8608 26.3243 45.4743 26.4935 45.959 26.2264L48.5454 24.8013C48.9484 24.6288 49.281 24.3568 49.5059 23.9889C49.7364 23.6118 49.8126 23.2016 49.8126 22.827V21.1498C49.8126 20.9566 49.7561 20.786 49.7377 20.7305L49.7365 20.727C49.7072 20.6384 49.6702 20.5454 49.6326 20.4571C49.5563 20.2781 49.4545 20.0653 49.3421 19.8447C49.1243 19.4171 48.8438 18.9146 48.58 18.4964C48.3964 18.1358 48.179 17.7098 47.9501 17.3682C47.4963 16.6143 47.3086 15.565 47.3973 14.4228C47.4964 13.3053 47.6693 11.781 47.902 10.4103C48.0187 9.72308 48.1479 9.08952 48.2863 8.57172C48.4096 8.11043 48.5229 7.8099 48.6068 7.6478L48.6134 7.64141L48.6456 7.60972L48.6749 7.57529C49.405 6.71517 50.7524 6.15491 53.0272 6.15491C55.1885 6.15491 56.5707 6.66231 57.4305 7.43836L57.4534 7.48329L57.4767 7.52888L57.5045 7.57188C57.59 7.7037 57.7222 8.0244 57.8663 8.56925C58.0028 9.08547 58.1288 9.71745 58.2389 10.402C58.4591 11.7711 58.606 13.2879 58.6546 14.3852L58.657 14.4391L58.6654 14.4925C58.8242 15.5063 58.5989 16.461 58.0922 17.3862C57.8659 17.7273 57.6514 18.1487 57.47 18.5048L57.4534 18.5374C57.322 18.7954 57.1607 19.0905 56.9963 19.3912L56.9963 19.3913C56.9175 19.5354 56.8379 19.6809 56.7606 19.8242C56.6468 20.0354 56.5365 20.2444 56.4533 20.4186C56.4121 20.5046 56.3699 20.598 56.3359 20.6875L56.3338 20.6931C56.3134 20.7467 56.2417 20.9343 56.2417 21.1498V22.827C56.2417 23.7424 56.8036 24.4497 57.4926 24.7916L62.1047 27.1538C63.3148 27.7891 64.0544 29.0292 63.9821 30.1648L63.9801 30.1956V30.2265V36.3419C63.9801 36.5973 63.7832 36.8113 63.5244 36.8372L49.9676 38.1918V34.1136C50.1129 31.5987 48.5256 29.1923 46.2493 28.0004L46.2452 27.9983L46.2412 27.9963L40.1356 24.8691L40.1279 24.8651L40.1202 24.8613C39.8803 24.7436 39.7474 24.5372 39.7474 24.3117V22.2318C39.7614 22.1995 39.7804 22.1576 39.8055 22.1052C39.8899 21.9287 40.0129 21.6942 40.1614 21.4188C40.249 21.2563 40.3455 21.0798 40.445 20.8976C40.6708 20.4845 40.9124 20.0426 41.1012 19.6719C41.3758 19.1328 41.6115 18.6735 41.8348 18.3448L41.8595 18.3083L41.8809 18.2698C42.752 16.7021 43.218 14.939 42.9296 13.0104C42.8593 11.4797 42.6576 9.41634 42.3565 7.54437C42.2042 6.59755 42.024 5.68405 41.818 4.90522C41.6259 4.17865 41.3883 3.47674 41.0804 2.981L40.9685 2.76126L40.8954 2.61785L40.7799 2.50448C39.0646 0.820544 36.507 0 33.1663 0ZM26.6068 22.2729C26.6065 22.2726 26.6048 22.2671 26.6024 22.2572C26.6059 22.2682 26.607 22.2732 26.6068 22.2729ZM39.7178 22.3064C39.7164 22.3109 39.7159 22.313 39.7161 22.3128C39.7165 22.3125 39.719 22.3056 39.7225 22.2931C39.7204 22.2988 39.7189 22.3032 39.7178 22.3064ZM47.8221 21.3375C47.8295 21.3597 47.827 21.357 47.8216 21.3359L47.8221 21.3375ZM58.2223 21.3769L58.2239 21.3729C58.2165 21.3977 58.213 21.4015 58.2223 21.3769ZM18.1779 21.3375C18.1705 21.3597 18.173 21.357 18.1784 21.3359L18.1779 21.3375ZM7.77766 21.3769L7.77611 21.3729C7.78353 21.3977 7.78698 21.4015 7.77766 21.3769ZM27.6983 35.8456H24.1767C23.6898 35.8456 23.3003 36.2073 23.3003 36.6595C23.3003 37.1117 23.6898 37.4734 24.1767 37.4734H27.6983C28.1852 37.4734 28.5747 37.1117 28.5747 36.6595C28.5909 36.2073 28.1852 35.8456 27.6983 35.8456ZM25.0692 39.9303C25.0692 39.4782 25.4586 39.1164 25.9455 39.1164C26.4324 39.1164 26.8219 39.4782 26.8219 39.9303C26.8219 40.3825 26.4324 40.7443 25.9455 40.7443C25.4586 40.7443 25.0692 40.3825 25.0692 39.9303ZM32.989 40.7443H29.4674C28.9805 40.7443 28.5911 40.3825 28.5911 39.9303C28.5911 39.4782 28.9805 39.1164 29.4674 39.1164H32.989C33.4759 39.1164 33.8654 39.4782 33.8654 39.9303C33.8654 40.3825 33.4759 40.7443 32.989 40.7443ZM36.4943 39.1164C36.0074 39.1164 35.6179 39.4782 35.6179 39.9303C35.6179 40.3825 36.0074 40.7443 36.4943 40.7443C36.9811 40.7443 37.3706 40.3825 37.3706 39.9303C37.3706 39.4782 36.9811 39.1164 36.4943 39.1164ZM39.1233 39.9303C39.1233 39.4782 39.5128 39.1164 39.9996 39.1164C40.4865 39.1164 40.876 39.4782 40.876 39.9303C40.876 40.3825 40.4865 40.7443 39.9996 40.7443C39.5128 40.7443 39.1233 40.3825 39.1233 39.9303ZM29.4674 42.3721C28.9805 42.3721 28.5911 42.7339 28.5911 43.1861C28.5911 43.6382 28.9805 44 29.4674 44C29.9543 44 30.3438 43.6382 30.3438 43.1861C30.3438 42.7339 29.9543 42.3721 29.4674 42.3721ZM32.9729 42.3721H36.4945C36.9814 42.3721 37.3709 42.7339 37.3709 43.1861C37.3709 43.6382 36.9814 44 36.4945 44H32.9729C32.486 44 32.0965 43.6382 32.0965 43.1861C32.0965 42.7339 32.486 42.3721 32.9729 42.3721ZM34.7416 37.4734H31.22C30.7331 37.4734 30.3436 37.1117 30.3436 36.6595C30.3436 36.2073 30.7331 35.8456 31.22 35.8456H34.7416C35.2285 35.8456 35.618 36.2073 35.618 36.6595C35.618 37.1117 35.2285 37.4734 34.7416 37.4734ZM41.7685 35.8456H38.2469C37.7601 35.8456 37.3706 36.2073 37.3706 36.6595C37.3706 37.1117 37.7601 37.4734 38.2469 37.4734H41.7685C42.2554 37.4734 42.6449 37.1117 42.6449 36.6595C42.6449 36.2073 42.2392 35.8456 41.7685 35.8456Z" fill="#C7CAFF"/>
</svg>
