<svg width="443" height="367" viewBox="0 0 443 367" fill="none" xmlns="http://www.w3.org/2000/svg">
<path d="M354.172 56H11.8281C6.40017 56 2 60.4112 2 65.8526V280.147C2 285.589 6.40017 290 11.8281 290H354.172C359.6 290 364 285.589 364 280.147V65.8526C364 60.4112 359.6 56 354.172 56Z" fill="#F1F1FF"/>
<path fill-rule="evenodd" clip-rule="evenodd" d="M31 56H9.78947C4.38324 56 0 60.4115 0 65.8526V280.147C0 285.588 4.38324 290 9.78947 290H31V56Z" fill="#A6ABEE"/>
<path d="M7.99956 81C8.55214 81 9 80.5527 9 79.9996C9 79.4473 8.55214 79 7.99956 79C7.44787 79 7 79.4473 7 79.9996C7 80.5527 7.44787 81 7.99956 81Z" fill="white"/>
<path d="M11.9996 85C12.5521 85 13 84.5527 13 83.9996C13 83.4473 12.5521 83 11.9996 83C11.4479 83 11 83.4473 11 83.9996C11 84.5527 11.4479 85 11.9996 85Z" fill="white"/>
<path d="M11.8308 81H15.1692C15.6304 81 16 80.5553 16 79.9996C16 79.4439 15.6304 79 15.1692 79H11.8308C11.3696 79 11 79.4439 11 79.9996C11 80.5553 11.385 81 11.8308 81Z" fill="white"/>
<path d="M15.8308 85H19.1692C19.6304 85 20 84.5553 20 83.9996C20 83.4439 19.6304 83 19.1692 83H15.8308C15.3696 83 15 83.4439 15 83.9996C15 84.5553 15.385 85 15.8308 85Z" fill="white"/>
<path d="M18.9996 81C19.5521 81 20 80.5527 20 79.9996C20 79.4473 19.5521 79 18.9996 79C18.4479 79 18 79.4473 18 79.9996C18 80.5527 18.4479 81 18.9996 81Z" fill="white"/>
<path d="M23.0004 81C23.5521 81 24 80.5527 24 79.9996C24 79.4473 23.5521 79 23.0004 79C22.4479 79 22 79.4473 22 79.9996C22 80.5527 22.4479 81 23.0004 81Z" fill="white"/>
<path d="M10.0029 75H5.99706C5.44353 75 5 75.4445 5 76C5 76.5555 5.44353 77 5.99706 77H10.0029C10.5574 77 11 76.5555 11 76C11 75.4445 10.5574 75 10.0029 75Z" fill="white"/>
<path d="M13.8308 77H17.1692C17.6304 77 18 76.5555 18 76C18 75.4445 17.6304 75 17.1692 75H13.8308C13.3696 75 13 75.4445 13 76C13 76.5555 13.3696 77 13.8308 77Z" fill="white"/>
<path d="M25.0029 75H20.9971C20.4426 75 20 75.4445 20 76C20 76.5555 20.4426 77 20.9971 77H25.0029C25.5565 77 26 76.5555 26 76C26 75.4445 25.5565 75 25.0029 75Z" fill="white"/>
<path d="M16 281C20.4183 281 24 277.418 24 273C24 268.582 20.4183 265 16 265C11.5817 265 8 268.582 8 273C8 277.418 11.5817 281 16 281Z" fill="#D6D2F8"/>
<path d="M101.888 175.568C92.2106 175.185 89.9612 136.337 90.3007 128.355C90.5978 120.373 95.9031 114.642 104.307 114.981C112.71 115.321 117.507 121.435 117.209 129.459C116.87 137.399 111.522 175.95 101.888 175.568Z" fill="#D5D6F7"/>
<path d="M219.964 88.8701C215.889 80.0814 179.176 92.946 171.918 96.3001C164.661 99.6542 161.393 106.745 164.915 114.344C168.438 121.987 175.95 124.067 183.208 120.713C190.466 117.316 224.038 97.6162 219.964 88.8701Z" fill="#D5D6F7"/>
<path d="M160.671 153.617C159.143 147.885 153.286 144.446 147.514 145.975C141.784 147.503 138.346 153.362 139.874 159.137C141.402 164.868 147.259 168.307 153.031 166.779C158.761 165.208 162.199 159.349 160.671 153.617Z" fill="url(#paint0_linear)"/>
<path d="M88.476 57.3245C92.0836 57.1546 94.8848 54.0553 94.715 50.404L92.6778 9.64514C92.508 6.03628 89.4097 3.23411 85.8021 3.40394C82.1944 3.57376 79.3932 6.67314 79.563 10.282L81.6002 51.0408C81.77 54.6921 84.8683 57.4943 88.476 57.3245Z" fill="#C7CAFF"/>
<path d="M156.172 53.9279C159.78 53.758 162.581 50.6587 162.411 47.0074L160.374 6.24853C160.204 2.63968 157.106 -0.162499 153.498 0.00732966C149.89 0.177158 147.089 3.27653 147.259 6.88539L149.296 47.6442C149.466 51.2955 152.564 54.0977 156.172 53.9279Z" fill="#C7CAFF"/>
<path d="M119.926 7.09771C142.463 5.95137 161.647 23.3163 162.793 45.861L163.642 62.9288C164.788 85.4735 146.495 85.8556 123.958 87.002C101.421 88.1483 83.1706 89.5918 82.0671 67.0471L81.2182 49.9794C80.0298 27.3922 97.3889 8.2016 119.926 7.09771Z" fill="url(#paint1_radial)"/>
<path d="M77.0164 59.1501C78.2472 83.9026 99.1715 100.164 123.916 98.89C148.66 97.6587 167.844 79.4022 166.613 54.6497C166.104 44.1628 157.53 44.5024 157.785 49.1727C158.167 56.7301 158.125 65.3913 155.96 67.684C152.14 71.8023 138.813 75.3263 122.77 76.133C106.896 76.9396 93.3144 74.6894 89.3248 72.3967C86.948 71.0381 86.6933 58.4708 86.4811 54.31C86.2264 48.6208 76.5495 49.3001 77.0164 59.1501Z" fill="url(#paint2_linear)"/>
<path d="M132.914 55.0742C134.739 54.9893 136.139 53.4184 136.054 51.6352L135.29 36.0534C135.205 34.2278 133.635 32.8267 131.852 32.9116C130.027 32.9965 128.627 34.5675 128.712 36.3507L129.476 51.9324C129.561 53.7581 131.131 55.1592 132.914 55.0742Z" fill="white"/>
<path d="M132.999 56.0932C130.622 56.2205 128.584 54.3524 128.457 51.9748L127.693 36.3931C127.566 34.0155 129.433 31.9775 131.81 31.8501C134.187 31.7228 136.224 33.5909 136.351 35.9685L137.115 51.5502C137.2 53.9703 135.375 55.9658 132.999 56.0932ZM131.853 33.9305C130.622 33.973 129.646 35.0769 129.688 36.3081L130.452 51.8899C130.494 53.1212 131.598 54.0977 132.829 54.0552C134.06 54.0127 135.036 52.9089 134.993 51.6776L134.229 36.0959C134.187 34.8221 133.126 33.8881 131.853 33.9305Z" fill="white"/>
<path d="M111.395 56.178C113.22 56.0931 114.621 54.5222 114.536 52.739L113.772 37.1572C113.687 35.3316 112.116 33.9305 110.334 34.0154C108.509 34.1003 107.108 35.6712 107.193 37.4544L107.957 53.0362C108.042 54.8618 109.57 56.2629 111.395 56.178Z" fill="white"/>
<path d="M111.437 57.197C109.061 57.3244 107.023 55.4563 106.896 53.0787L106.132 37.4969C106.005 35.1193 107.872 33.0814 110.249 32.954C112.626 32.8267 114.663 34.6948 114.79 37.0724L115.554 52.6541C115.682 55.0317 113.814 57.0697 111.437 57.197ZM110.334 35.0344C109.103 35.0769 108.127 36.1808 108.169 37.412L108.933 52.9938C108.976 54.225 110.079 55.2015 111.31 55.1591C112.541 55.1166 113.517 54.0127 113.475 52.7815L112.711 37.1997C112.668 35.926 111.607 34.9495 110.334 35.0344Z" fill="white"/>
<path d="M162.029 151.961C154.899 155.698 145.307 157.99 137.922 158.33C129.858 158.5 123.916 152.046 124.765 146.357C125.613 140.668 130.876 137.314 136.394 137.186C143.355 137.016 146.792 136.125 152.904 132.813C157.743 130.181 163.982 130.52 167.547 135.063C171.112 139.564 169.117 148.14 162.029 151.961Z" fill="url(#paint3_linear)"/>
<path d="M166.868 111.542C168.226 116.722 173.531 119.779 178.709 118.42C183.887 117.062 186.943 111.754 185.585 106.575C184.227 101.395 178.921 98.3381 173.743 99.6967C168.608 101.098 165.51 106.405 166.868 111.542Z" fill="#BABDF7"/>
<path d="M95.0547 130.478C96.4129 135.658 101.718 138.715 106.896 137.356C112.074 135.997 115.13 130.69 113.772 125.511C112.414 120.331 107.108 117.274 101.93 118.632C96.7948 120.034 93.6965 125.341 95.0547 130.478Z" fill="#BABDF7"/>
<path d="M108.509 135.191C105.58 132.389 103.883 128.525 104.095 124.492C104.519 116.467 110.249 109.165 119.289 106.787L152.777 97.9559C161.817 95.5783 170.391 99.1022 174.72 105.895C176.884 109.292 177.351 113.538 176.163 117.401C167.335 146.654 130.664 156.334 108.509 135.191Z" fill="url(#paint4_linear)"/>
<path d="M144.416 134.087C156.639 130.86 160.417 121.689 158.294 116.807C157.021 113.835 153.244 112.646 148.278 114.175C145.18 115.109 142.718 117.019 140.129 117.699C137.54 118.378 134.442 117.953 131.258 118.633C126.208 119.779 123.491 122.666 123.831 125.893C124.383 131.2 132.15 137.314 144.416 134.087Z" fill="url(#paint5_linear)"/>
<path d="M130.202 240.455L26.9281 346.112C19.5013 353.71 24.8846 366.5 35.5096 366.5H418.868C428.781 366.5 434.418 355.162 428.436 347.258L287.161 160.604C282.486 154.426 273.269 154.232 268.338 160.207L190.241 254.832C186.39 259.499 179.667 260.568 174.558 257.327L145.212 238.71C140.425 235.673 134.165 236.4 130.202 240.455Z" fill="url(#paint6_linear)"/>
<path d="M198.5 207.5C197 207 197.667 204.333 198 204C198.5 203.167 199.5 201.7 199.5 202.5C199.5 203.5 200 208 198.5 207.5Z" fill="#C7CAFF"/>
<path d="M228.5 189.215C228.5 190.999 225.431 190.764 225 190.5C224.006 190.186 222.403 189.214 223.261 189.215C226 189.215 228.5 187.43 228.5 189.215Z" fill="#C7CAFF"/>
<line x1="276.5" y1="100.5" x2="276.5" y2="155.5" stroke="#C7CAFF" stroke-width="3" stroke-linecap="round"/>
<path d="M299.985 110.417L275 103V120.5L299.9 114.275C301.875 113.781 301.936 110.997 299.985 110.417Z" fill="#FF0068"/>
<path d="M205 183.003V183C205 173.8 214.5 175.5 214.5 180.5C214.5 180.5 214.5 183 214 186.5C213.753 188.228 213.31 188.823 213 190.5L213.5 194.5C219 194 224.336 192.615 226.5 195.5C228 197.5 229 202.501 229 208.003L226.5 211C226.5 204.499 224 204 224 200C223.214 199.214 219.403 200.764 215.596 201.84C216.338 204.722 216.384 211.314 216 214.001C215.6 216.801 211.667 226.833 210.5 230.5L207 234.501C209 225.001 206.221 224.725 210.5 218.001C213.852 212.735 210.784 207.926 209.64 202.697C208.692 202.569 207.941 202.205 207.5 201.5C205.001 197.501 205 187.504 205 183.003Z" fill="#C7CAFF"/>
<path d="M219.5 187C216.7 186.2 215.167 182 214.5 180L213 185.5C213.333 186.333 214.6 188.3 217 189.5C219.4 190.7 223.667 190.667 225.5 190.5L226 189C224.833 189 222.3 187.8 219.5 187Z" fill="#C7CAFF"/>
<path d="M210.161 172.687C210.01 172.942 209.836 173.161 209.417 173.075C208.997 172.989 208.595 172.685 208.403 173.122C208.235 173.596 207.476 174.045 207.306 174.105C206.929 174.251 206.606 174.153 206.767 173.995C207.065 173.643 207.237 173.011 207.081 173.01C206.961 172.986 206.539 173.472 205.913 173.471C205.599 173.47 205.238 172.983 205.468 172.935C205.698 172.887 206.039 172.765 206.372 171.976C206.705 171.186 205.39 169.359 205.285 168.289C205.179 167.219 206.044 165.87 206.712 165.689C206.78 165.385 207.162 165.495 207.277 165.264C207.532 164.681 207.548 164.048 208.581 163.211C209.799 162.252 211.111 162.267 212.474 163.181C213.458 163.827 214.217 164.777 214.5 165.471C214.784 166.164 214.984 166.809 215.518 166.664C216.052 166.519 214.838 168.305 213.738 168.461L210.161 172.687Z" fill="#C7CAFF"/>
<path d="M214.749 170.662C214.818 171.438 214.592 172.247 214.122 172.834C213.999 172.971 213.875 173.108 213.727 173.207C213.53 173.393 213.284 173.503 213.038 173.612C212.792 173.721 212.46 173.778 212.203 173.785C211.884 173.779 211.602 173.747 211.332 173.653C211.002 173.544 210.684 173.373 210.403 173.176C209.865 172.822 209.39 172.317 208.976 171.826C208.635 171.45 208.355 171.088 208.013 170.713C207.526 170.106 207.164 169.196 207.047 168.343C207.035 168.241 206.999 168.101 207.024 167.974C207.013 167.872 207.001 167.77 207.014 167.707C206.989 167.668 207.026 167.644 207.002 167.605C207.016 167.377 207.066 167.124 207.117 166.871C207.406 165.746 208.209 164.772 209.23 164.31C210.251 163.849 211.466 163.861 212.456 164.352C212.75 164.485 213.007 164.643 213.177 164.913C213.298 165.106 213.395 165.26 213.48 165.478C213.649 165.914 213.855 166.324 213.987 166.784C214.191 167.525 214.186 168.351 214.353 169.117C214.51 169.615 214.728 170.128 214.749 170.662Z" fill="#C7CAFF"/>
<path opacity="0.24" d="M213.759 173.194C213.558 173.378 213.31 173.489 213.063 173.6C212.815 173.711 212.484 173.774 212.227 173.788C211.91 173.791 211.631 173.768 211.365 173.685C211.039 173.59 210.728 173.434 210.454 173.254C209.929 172.93 209.469 172.459 209.071 172C208.742 171.65 208.473 171.311 208.144 170.961C207.676 170.393 207.34 169.532 207.246 168.719C207.237 168.621 207.205 168.488 207.234 168.366L208.841 169.473C209.06 169.484 209.236 169.677 209.375 169.895C209.722 170.439 209.934 171.021 210.206 171.615C210.478 172.208 210.862 172.728 211.41 173.089C211.829 173.329 212.35 173.398 212.826 173.395C213.157 173.332 213.451 173.293 213.759 173.194Z" fill="#C7CAFF"/>
<path d="M212.976 164.483C212.999 165.197 212.897 166.388 211.483 169.128C210.007 172.022 209.29 169.696 208.468 169.572C207.646 169.448 208.863 171.384 208.936 172.009C209.009 172.633 208.81 172.822 208.81 172.822L206.202 168.842L208.168 164.105L211.159 163.621L212.976 164.483Z" fill="#C7CAFF"/>
<path d="M201.5 186.5C203.5 181.3 206.5 177 208.5 176.5C212.5 176.5 211.5 180 209.5 183.5C207.5 187 203.5 189 203 193.5C202.6 197.1 200.167 201.5 199.5 203.5L198 204C198.333 200.333 199.5 191.7 201.5 186.5Z" fill="#C7CAFF"/>
<path fill-rule="evenodd" clip-rule="evenodd" d="M260.643 204.154C270.022 204.154 277.771 197.175 278.98 188.126C282.362 191.831 287.232 194.154 292.643 194.154C298.558 194.154 303.824 191.379 307.211 187.059L287.304 160.758C282.629 154.581 273.412 154.387 268.481 160.362L243 191.235C245.367 198.725 252.371 204.154 260.643 204.154Z" fill="#E3E4FF"/>
<rect x="355.822" y="129.822" width="37.3556" height="37.3556" rx="11" fill="#7506D8"/>
<path d="M375.257 139.12C369.811 139.12 365.348 143.28 365.348 148.5C365.348 150.315 365.878 152.055 366.936 153.568C366.71 155.837 366.256 157.501 365.5 158.333C365.424 158.409 365.348 158.56 365.424 158.712C365.5 158.863 365.575 158.939 365.726 158.939C365.878 158.939 368.979 158.485 371.249 157.123C372.535 157.653 373.896 157.955 375.258 157.955C380.704 157.955 385.167 153.795 385.167 148.575C385.167 143.356 380.704 139.12 375.257 139.12ZM379.115 144.415C379.872 144.415 380.477 145.021 380.477 145.777C380.477 146.533 379.872 147.138 379.115 147.138C378.359 147.138 377.754 146.533 377.754 145.777C377.754 145.02 378.359 144.415 379.115 144.415ZM371.324 144.415C372.08 144.415 372.686 145.021 372.686 145.777C372.686 146.533 372.08 147.138 371.324 147.138C370.567 147.138 369.963 146.533 369.963 145.777C369.963 145.02 370.567 144.415 371.324 144.415ZM375.257 154.249C372.837 154.249 370.794 152.887 369.735 150.845H375.711H380.704C379.72 152.887 377.678 154.249 375.257 154.249Z" fill="white"/>
<path d="M325 61C339.912 61 352 48.9119 352 34.0002C352 19.0885 339.912 7 325 7C310.088 7 298 19.0885 298 34.0002C298 48.9119 310.088 61 325 61Z" fill="url(#paint7_linear)"/>
<path d="M309.651 49.6813L311.859 41.5649C310.479 39.1903 309.761 36.4848 309.761 33.7243C309.761 25.0557 316.829 18.0432 325.442 18.0432C329.638 18.0432 333.558 19.7002 336.54 22.6261C339.522 25.6079 341.123 29.5278 341.123 33.7243C341.123 42.393 334.055 49.4054 325.442 49.4054C322.792 49.4054 320.252 48.7428 317.933 47.473L309.651 49.6813ZM318.375 44.6571L318.872 44.933C320.86 46.1478 323.179 46.755 325.497 46.755C332.675 46.755 338.528 40.9023 338.528 33.7243C338.528 30.2458 337.148 26.9881 334.718 24.5035C332.234 22.0189 328.976 20.6937 325.497 20.6937C318.32 20.6937 312.467 26.5464 312.467 33.7243C312.467 36.2089 313.129 38.5831 314.454 40.681L314.786 41.1782L313.461 45.9823L318.375 44.6571Z" fill="url(#paint8_linear)"/>
<path d="M321.578 27.1536C321.302 26.491 320.971 26.491 320.694 26.491C320.473 26.491 320.197 26.491 319.921 26.491C319.645 26.491 319.259 26.6014 318.873 26.9881C318.486 27.3749 317.492 28.3134 317.492 30.2458C317.492 32.1782 318.873 34.0556 319.093 34.2765C319.314 34.5524 321.799 38.6381 325.774 40.1842C329.087 41.5095 329.75 41.2336 330.467 41.1786C331.185 41.1231 332.786 40.2401 333.118 39.3011C333.449 38.3626 333.449 37.5892 333.338 37.4237C333.228 37.2583 332.952 37.1478 332.566 36.9824C332.179 36.7611 330.247 35.8226 329.86 35.7122C329.473 35.6021 329.253 35.4917 328.976 35.9335C328.7 36.3202 327.983 37.2033 327.761 37.4792C327.541 37.7559 327.32 37.7559 326.933 37.5896C326.547 37.3691 325.277 36.9824 323.786 35.6572C322.626 34.6078 321.854 33.3384 321.633 32.9517C321.412 32.565 321.633 32.3445 321.798 32.1786C321.964 32.0132 322.185 31.7369 322.406 31.516C322.626 31.2955 322.682 31.1301 322.793 30.8538C322.903 30.5779 322.848 30.3566 322.737 30.1912C322.683 29.8591 321.91 27.9266 321.578 27.1536Z" fill="white"/>
<g clip-path="url(#clip0)">
<path d="M248.736 72.4708C261.292 72.4708 271.471 62.2919 271.471 49.7355C271.471 37.1789 261.292 27 248.736 27C236.179 27 226 37.1789 226 49.7355C226 62.2919 236.179 72.4708 248.736 72.4708Z" fill="#35AAE6"/>
<path d="M245.715 52.4196C248.148 49.7348 250.665 47.05 253.098 44.2817C252.679 44.6171 252.259 44.8691 251.84 45.2045C249.323 47.0503 246.806 48.8961 244.289 50.8257C244.121 50.9095 244.121 50.9936 244.121 51.2449C244.457 52.7553 244.709 54.265 245.044 55.7755C245.044 55.943 245.044 56.1946 244.96 56.3628C244.792 57.2018 244.624 58.0408 244.457 58.9632C244.457 59.0473 244.457 59.0473 244.373 59.1311C244.205 58.3758 244.122 57.6213 243.954 56.8661C243.702 55.1881 243.366 53.5105 243.115 51.9163C243.115 51.8326 243.031 51.7485 242.947 51.7485C241.437 51.4968 239.843 51.2449 238.333 51.0777C237.326 50.9098 236.906 49.9871 237.494 49.064C237.662 48.8127 237.913 48.5611 238.249 48.3932C244.037 45.7077 249.826 42.9395 255.699 40.2547C256.035 40.0872 256.454 40.0034 256.873 39.9193C256.957 39.9193 257.041 39.9193 257.125 39.9193C257.796 39.9193 258.132 40.3391 258.048 41.0099C257.88 42.0168 257.628 43.1074 257.46 44.1139C256.873 47.1341 256.286 50.1543 255.699 53.0907C255.279 55.104 254.86 57.1177 254.44 59.1311C254.356 59.6347 254.105 60.1379 253.685 60.4733C253.349 60.7249 253.182 60.7249 252.846 60.4733C252.259 59.8859 251.671 59.2145 251.084 58.5437C249.323 56.6141 247.645 54.6008 245.883 52.6712C245.8 52.5033 245.799 52.4196 245.715 52.4196Z" fill="white"/>
</g>
<path d="M352 85.31C352 92.0154 354.748 97.8095 359.223 101.812C359.599 102.148 359.826 102.619 359.841 103.123L359.966 107.214C360.006 108.519 361.354 109.369 362.549 108.841L367.114 106.826C367.501 106.655 367.934 106.624 368.342 106.736C370.44 107.313 372.673 107.62 375 107.62C387.957 107.62 398 98.1293 398 85.31C398 72.4908 387.957 63 375 63C362.043 63 352 72.4908 352 85.31Z" fill="url(#paint9_radial)"/>
<path fill-rule="evenodd" clip-rule="evenodd" d="M361.189 91.8345L367.945 81.1155C369.019 79.4104 371.321 78.9857 372.933 80.1951L378.307 84.2253C378.8 84.5951 379.478 84.5932 379.969 84.2206L387.227 78.7127C388.195 77.9777 389.46 79.1368 388.811 80.1656L382.055 90.8846C380.98 92.5898 378.679 93.0144 377.067 91.805L371.693 87.7747C371.2 87.4049 370.521 87.4069 370.031 87.7796L362.773 93.2874C361.805 94.0224 360.54 92.8632 361.189 91.8345Z" fill="white"/>
<path d="M347 210C355.284 210 362 203.284 362 195C362 186.715 355.284 180 347 180C338.716 180 332 186.716 332 195C332 203.285 338.716 210 347 210Z" fill="#A0A6FF"/>
<path d="M341.843 193.02C342.032 193.142 342.538 193.508 343.421 194.056C344.305 194.605 344.937 195.092 345.379 195.397C345.442 195.458 345.568 195.519 345.694 195.641C345.884 195.763 346.01 195.824 346.073 195.946C346.199 196.007 346.326 196.068 346.452 196.19C346.578 196.25 346.767 196.372 346.894 196.372C347.02 196.433 347.146 196.433 347.273 196.433C347.399 196.433 347.525 196.433 347.652 196.372C347.778 196.312 347.904 196.25 348.093 196.19C348.219 196.129 348.409 196.007 348.472 195.946C348.598 195.885 348.725 195.763 348.851 195.641C349.04 195.519 349.104 195.458 349.167 195.397C349.608 195.092 350.808 194.3 352.702 193.02C353.081 192.777 353.396 192.472 353.649 192.106C353.902 191.74 354.028 191.374 354.028 191.009C354.028 190.704 353.902 190.4 353.649 190.156C353.396 189.912 353.144 189.79 352.765 189.79H341.591C341.212 189.79 340.896 189.912 340.707 190.156C340.517 190.4 340.391 190.704 340.391 191.131C340.391 191.436 340.517 191.801 340.833 192.106C341.275 192.533 341.528 192.837 341.843 193.02Z" fill="white"/>
<path d="M353.085 194.244C351.451 195.339 350.195 196.19 349.315 196.738C349.001 196.92 348.812 197.103 348.623 197.224C348.435 197.346 348.184 197.467 347.932 197.589C347.618 197.711 347.367 197.771 347.115 197.771C346.864 197.771 346.612 197.711 346.298 197.589C345.984 197.467 345.733 197.346 345.607 197.224C345.418 197.102 345.167 196.92 344.916 196.738C344.225 196.251 342.968 195.4 341.146 194.244C340.831 194.062 340.58 193.819 340.391 193.636V199.413C340.391 199.717 340.517 200.021 340.768 200.264C341.02 200.507 341.271 200.629 341.648 200.629H352.771C353.085 200.629 353.399 200.507 353.65 200.264C353.902 200.021 354.028 199.778 354.028 199.413V193.636C353.588 193.819 353.336 194.062 353.085 194.244Z" fill="white"/>
<defs>
<linearGradient id="paint0_linear" x1="149.276" y1="152.704" x2="153.856" y2="170.073" gradientUnits="userSpaceOnUse">
<stop offset="0.00510817" stop-color="#E9E9F7"/>
<stop offset="0.9989" stop-color="#C7CAFF"/>
</linearGradient>
<radialGradient id="paint1_radial" cx="0" cy="0" r="1" gradientUnits="userSpaceOnUse" gradientTransform="translate(93.8245 1.34744) rotate(-2.87132) scale(90.6796 90.71)">
<stop stop-color="#8805C8"/>
<stop offset="0.6641" stop-color="#5906EF"/>
<stop offset="1" stop-color="#4707FF"/>
</radialGradient>
<linearGradient id="paint2_linear" x1="121.538" y1="50.8558" x2="123.692" y2="93.7923" gradientUnits="userSpaceOnUse">
<stop offset="0.00510817" stop-color="#E9E9F7"/>
<stop offset="0.9989" stop-color="#C7CAFF"/>
</linearGradient>
<linearGradient id="paint3_linear" x1="145.94" y1="140.043" x2="150.356" y2="156.789" gradientUnits="userSpaceOnUse">
<stop offset="0.00510817" stop-color="#E9E9F7"/>
<stop offset="0.9989" stop-color="#C7CAFF"/>
</linearGradient>
<linearGradient id="paint4_linear" x1="137.024" y1="106.208" x2="146.626" y2="142.62" gradientUnits="userSpaceOnUse">
<stop offset="0.00510817" stop-color="#E9E9F7"/>
<stop offset="0.9989" stop-color="#C7CAFF"/>
</linearGradient>
<linearGradient id="paint5_linear" x1="124.289" y1="129.917" x2="163.558" y2="119.57" gradientUnits="userSpaceOnUse">
<stop stop-color="#FF0068"/>
<stop offset="0.5117" stop-color="#9E04B6"/>
<stop offset="1" stop-color="#7306DA"/>
</linearGradient>
<linearGradient id="paint6_linear" x1="225" y1="243" x2="225" y2="367" gradientUnits="userSpaceOnUse">
<stop stop-color="#C7CAFF"/>
<stop offset="0.951613" stop-color="white"/>
</linearGradient>
<linearGradient id="paint7_linear" x1="325" y1="5.32162" x2="325" y2="64.0035" gradientUnits="userSpaceOnUse">
<stop offset="0.0108" stop-color="#45E962"/>
<stop offset="0.2701" stop-color="#3FE15C"/>
<stop offset="1" stop-color="#32CF4E"/>
</linearGradient>
<linearGradient id="paint8_linear" x1="325.387" y1="49.6814" x2="325.387" y2="18.0432" gradientUnits="userSpaceOnUse">
<stop stop-color="#F9F9F9"/>
<stop offset="1" stop-color="white"/>
</linearGradient>
<radialGradient id="paint9_radial" cx="0" cy="0" r="1" gradientUnits="userSpaceOnUse" gradientTransform="translate(361.315 108.54) scale(49.7627)">
<stop stop-color="#0099FF"/>
<stop offset="0.6098" stop-color="#A033FF"/>
<stop offset="0.9348" stop-color="#FF5280"/>
<stop offset="1" stop-color="#FF7061"/>
</radialGradient>
<clipPath id="clip0">
<rect width="45.4708" height="45.4708" fill="white" transform="translate(226 27)"/>
</clipPath>
</defs>
</svg>
