<svg width="61" height="28" viewBox="0 0 61 28" fill="none" xmlns="http://www.w3.org/2000/svg">
<path fill-rule="evenodd" clip-rule="evenodd" d="M2.76578 0H13.8801C15.4167 0 16.6459 1.24214 16.6459 2.79481C16.6459 4.34749 15.4167 5.58962 13.8801 5.58962H2.76578C1.22924 5.58962 0 4.34749 0 2.79481C0 1.24214 1.22924 0 2.76578 0ZM8.29784 11.2309C6.76129 11.2309 5.53205 12.473 5.53205 14.0257C5.53205 15.5783 6.76129 16.8205 8.29784 16.8205C9.83438 16.8205 11.0636 15.5783 11.0636 14.0257C11.1148 12.473 9.83438 11.2309 8.29784 11.2309ZM19.4126 16.8205H30.5269C32.0635 16.8205 33.2927 15.5783 33.2927 14.0257C33.2927 12.473 32.0635 11.2309 30.5269 11.2309H19.4126C17.876 11.2309 16.6468 12.473 16.6468 14.0257C16.6468 15.5783 17.876 16.8205 19.4126 16.8205ZM38.8238 14.0257C38.8238 12.473 40.053 11.2309 41.5896 11.2309C43.1261 11.2309 44.3553 12.473 44.3553 14.0257C44.3553 15.5783 43.1261 16.8205 41.5896 16.8205C40.053 16.8205 38.8238 15.5783 38.8238 14.0257ZM52.6519 11.2309C51.1154 11.2309 49.8861 12.473 49.8861 14.0257C49.8861 15.5783 51.1154 16.8205 52.6519 16.8205C54.1885 16.8205 55.4177 15.5783 55.4177 14.0257C55.4689 12.473 54.1885 11.2309 52.6519 11.2309ZM16.6468 25.2052C16.6468 23.6525 17.876 22.4104 19.4126 22.4104C20.9491 22.4104 22.1783 23.6525 22.1783 25.2052C22.1783 26.7579 20.9491 28 19.4126 28C17.876 28 16.6468 26.7579 16.6468 25.2052ZM41.5892 22.4104H30.4748C28.9383 22.4104 27.709 23.6525 27.709 25.2052C27.709 26.7579 28.9383 28 30.4748 28H41.5892C43.1257 28 44.355 26.7579 44.355 25.2052C44.355 23.6525 43.1257 22.4104 41.5892 22.4104ZM24.9429 5.58962H36.0572C37.5938 5.58962 38.823 4.34749 38.823 2.79481C38.823 1.24214 37.5938 0 36.0572 0H24.9429C23.4063 0 22.1771 1.24214 22.1771 2.79481C22.1771 4.34749 23.4063 5.58962 24.9429 5.58962ZM47.1199 0H58.2342C59.7708 0 61 1.24214 61 2.79481C61 4.34749 59.7708 5.58962 58.2342 5.58962H47.1199C45.5833 5.58962 44.3541 4.34749 44.3541 2.79481C44.3541 1.24214 45.5833 0 47.1199 0Z" fill="url(#paint0_linear)"/>
<defs>
<linearGradient id="paint0_linear" x1="8.18676" y1="5.58962" x2="52.4792" y2="5.58962" gradientUnits="userSpaceOnUse">
<stop stop-color="#FF0068"/>
<stop offset="1" stop-color="#8905C9"/>
</linearGradient>
</defs>
</svg>
