<svg width="262" height="844" viewBox="0 0 262 844" fill="none" xmlns="http://www.w3.org/2000/svg">
<mask id="mask0_305_112" style="mask-type:alpha" maskUnits="userSpaceOnUse" x="0" y="0" width="262" height="844">
<rect width="262" height="844" fill="#C4C4C4"/>
</mask>
<g mask="url(#mask0_305_112)">
<path d="M74.48 425.077C80.8513 423.354 84.7105 416.428 83.0997 409.607C81.4889 402.786 75.0181 398.653 68.6467 400.375C62.2754 402.098 58.4162 409.024 60.027 415.845C61.6378 422.666 68.1086 426.799 74.48 425.077Z" fill="#ED166E"/>
<path d="M135.394 401.144C141.83 399.404 145.81 392.757 144.284 386.297C142.759 379.838 136.305 376.011 129.87 377.751C123.435 379.491 119.454 386.138 120.98 392.597C122.505 399.057 128.959 402.884 135.394 401.144Z" fill="#ED166E"/>
<path d="M73.1062 399.05C78.8684 397.492 82.3563 391.219 80.8966 385.037C79.4369 378.856 73.5824 375.108 67.8202 376.666C62.0579 378.224 58.57 384.497 60.0297 390.679C61.4894 396.86 67.344 400.608 73.1062 399.05Z" fill="#ED166E"/>
<path d="M84.3083 386.516C89.7165 385.053 92.9923 379.175 91.625 373.385C90.2577 367.595 84.7651 364.086 79.3569 365.549C73.9487 367.011 70.6729 372.889 72.0402 378.679C73.4075 384.469 78.9001 387.978 84.3083 386.516Z" fill="#ED166E"/>
<path d="M128.829 416.121C134.237 414.659 137.513 408.78 136.146 402.99C134.778 397.2 129.286 393.692 123.877 395.154C118.469 396.616 115.193 402.495 116.561 408.285C117.928 414.075 123.421 417.583 128.829 416.121Z" fill="#ED166E"/>
<path d="M70.42 404.961C74.1973 403.94 76.4882 399.847 75.537 395.819C74.5857 391.791 70.7524 389.353 66.9751 390.374C63.1978 391.395 60.9069 395.489 61.8581 399.517C62.8094 403.545 66.6427 405.983 70.42 404.961Z" fill="#ED166E"/>
<path d="M133.097 428.287C136.875 427.266 139.163 423.16 138.208 419.116C137.253 415.072 133.417 412.622 129.639 413.643C125.862 414.664 123.574 418.77 124.529 422.814C125.484 426.858 129.32 429.308 133.097 428.287Z" fill="#ED166E"/>
<path d="M67.7231 437.385C72.3227 436.142 75.1088 431.142 73.9459 426.218C72.783 421.294 68.1116 418.31 63.512 419.553C58.9123 420.797 56.1263 425.797 57.2892 430.721C58.452 435.645 63.1235 438.629 67.7231 437.385Z" fill="#ED166E"/>
<path d="M127.014 440.957C131.614 439.714 134.4 434.714 133.237 429.789C132.074 424.865 127.403 421.881 122.803 423.125C118.203 424.368 115.417 429.368 116.58 434.292C117.743 439.217 122.414 442.2 127.014 440.957Z" fill="#ED166E"/>
<path d="M60.1137 451.093C61.9487 450.597 63.0601 448.603 62.5962 446.638C62.1323 444.674 60.2687 443.483 58.4338 443.98C56.5988 444.476 55.4874 446.47 55.9513 448.435C56.4152 450.399 58.2788 451.589 60.1137 451.093Z" fill="#ED166E"/>
<path d="M135.069 457.71C136.904 457.213 138.015 455.219 137.551 453.254C137.087 451.29 135.224 450.1 133.389 450.596C131.554 451.092 130.442 453.086 130.906 455.051C131.37 457.015 133.234 458.206 135.069 457.71Z" fill="#ED166E"/>
<path fill-rule="evenodd" clip-rule="evenodd" d="M85.5581 360.284C77.5666 382.508 71.1752 407.218 66.9887 433.937C69.5581 433.815 71.9413 435.633 72.5964 438.407C73.1663 440.82 72.2641 443.262 70.4954 444.645C70.8903 445.067 71.187 445.605 71.3337 446.226C71.7663 448.058 70.7299 449.918 69.0187 450.38C67.3076 450.843 65.5697 449.733 65.1371 447.901C65.1091 447.783 65.0873 447.664 65.0714 447.546C57.8001 505.585 60.8922 572.288 80.1079 643.104C103.725 730.143 184.153 803.85 259.548 843.697C223.667 821.164 120.076 750.984 101.909 634.357C88.727 549.737 101.861 496.764 116.645 450.357C116.151 449.592 115.773 448.721 115.548 447.766C114.567 443.614 116.814 439.4 120.596 438.16C120.998 436.933 121.399 435.709 121.799 434.488L121.801 434.483C125.697 422.607 129.51 410.984 132.793 399.159C157.844 308.939 108.145 330.721 85.5581 360.284ZM65.3077 445.691C65.3406 445.611 65.3763 445.532 65.4147 445.455C65.3904 445.446 65.3661 445.436 65.342 445.427C65.3305 445.515 65.3191 445.603 65.3077 445.691ZM80.3894 463.763C80.7894 465.457 79.8311 467.176 78.249 467.604C76.6669 468.032 75.0601 467.005 74.6601 465.312C74.2601 463.618 75.2184 461.898 76.8005 461.47C78.3826 461.043 79.9894 462.069 80.3894 463.763ZM77.4491 458.29C80.0779 457.58 81.6702 454.722 81.0056 451.908C80.341 449.093 77.6711 447.388 75.0424 448.099C72.4136 448.809 70.8213 451.667 71.4859 454.481C72.1505 457.295 74.8203 459.001 77.4491 458.29Z" fill="#ED166E"/>
<path d="M128.322 444.381C130.157 443.885 131.268 441.89 130.804 439.926C130.34 437.961 128.477 436.771 126.642 437.267C124.807 437.763 123.695 439.758 124.159 441.722C124.623 443.686 126.487 444.877 128.322 444.381Z" fill="#ED166E"/>
<path d="M111.912 514.941C113.804 514.912 115.316 513.246 115.289 511.22C115.262 509.194 113.706 507.576 111.813 507.605C109.921 507.634 108.409 509.3 108.436 511.326C108.463 513.352 110.019 514.97 111.912 514.941Z" fill="#ED166E"/>
<path d="M115.275 474.119C117.11 473.623 118.221 471.629 117.757 469.664C117.293 467.7 115.43 466.51 113.595 467.006C111.76 467.502 110.649 469.496 111.112 471.461C111.576 473.425 113.44 474.616 115.275 474.119Z" fill="#ED166E"/>
<path d="M68.3452 442.552C70.8787 441.867 72.4133 439.113 71.7728 436.401C71.1323 433.688 68.5592 432.045 66.0257 432.73C63.4923 433.415 61.9577 436.169 62.5982 438.881C63.2387 441.593 65.8117 443.237 68.3452 442.552Z" fill="#ED166E"/>
<path d="M110.137 473.313C113.992 472.271 116.327 468.08 115.352 463.953C114.378 459.826 110.463 457.326 106.608 458.368C102.753 459.41 100.418 463.6 101.393 467.727C102.367 471.854 106.282 474.355 110.137 473.313Z" fill="#ED166E"/>
<path d="M114.307 488.63C119.05 488.557 122.841 484.381 122.772 479.303C122.704 474.224 118.804 470.166 114.06 470.239C109.316 470.312 105.526 474.488 105.594 479.566C105.662 484.645 109.563 488.703 114.307 488.63Z" fill="#ED166E"/>
<path d="M120.541 504.325C125.285 504.252 129.075 500.076 129.007 494.998C128.939 489.92 125.038 485.862 120.294 485.935C115.551 486.007 111.76 490.183 111.828 495.262C111.897 500.34 115.797 504.398 120.541 504.325Z" fill="#ED166E"/>
<path d="M100.988 503.62C104.883 503.56 107.996 500.131 107.94 495.96C107.884 491.79 104.681 488.458 100.785 488.517C96.8895 488.577 93.7768 492.007 93.8327 496.177C93.8887 500.348 97.092 503.68 100.988 503.62Z" fill="#ED166E"/>
<path d="M106.321 476.871C108.156 476.375 109.267 474.381 108.803 472.416C108.339 470.452 106.476 469.262 104.641 469.758C102.806 470.254 101.694 472.248 102.158 474.213C102.622 476.177 104.486 477.367 106.321 476.871Z" fill="#ED166E"/>
<path d="M112.951 514.815C114.843 514.786 116.355 513.12 116.328 511.094C116.301 509.068 114.745 507.449 112.852 507.478C110.96 507.507 109.448 509.173 109.475 511.199C109.502 513.225 111.058 514.844 112.951 514.815Z" fill="#ED166E"/>
<path d="M104.524 535.81C106.416 535.781 107.928 534.115 107.901 532.089C107.874 530.063 106.318 528.444 104.426 528.473C102.533 528.502 101.021 530.168 101.048 532.194C101.075 534.22 102.632 535.839 104.524 535.81Z" fill="#ED166E"/>
<path d="M102.292 521.256C104.938 521.215 107.051 518.887 107.013 516.055C106.975 513.223 104.8 510.96 102.155 511C99.5096 511.041 97.396 513.37 97.434 516.202C97.472 519.034 99.6472 521.296 102.292 521.256Z" fill="#ED166E"/>
<path d="M11.4613 297.341C-1.84364 327.76 28.3901 426.974 28.3901 426.974C28.3901 426.974 42.3389 426.821 48.0823 409.388C52.5919 395.715 66.8764 350.812 72.8109 332.068C69.0015 278.607 69.6918 241.449 71.2092 218.074C53.0961 238.3 20.8468 275.842 11.4613 297.341Z" fill="url(#paint0_linear_305_112)"/>
<path d="M228.865 353.292C231.056 329.125 220.077 278.078 214.05 252.429C204.658 272.759 187.876 305.068 159.378 349.505C156.417 364.512 145.821 418.176 142.92 433.61C139.552 451.613 151.671 458.459 151.671 458.459C151.671 458.459 225.837 386.279 228.865 353.292Z" fill="url(#paint1_linear_305_112)"/>
<path d="M211.596 246.401C233.498 183.345 244.167 101.221 208.851 13.3031C207.052 8.85493 205.034 6.36703 202.52 5.62589L202.231 5.55152C199.694 4.8994 196.704 6.19497 192.983 9.22453C119.605 69.2039 89.4175 146.311 78.1984 212.113C76.0317 214.451 73.09 217.68 69.6091 221.531C68.1433 244.31 67.4514 280.693 71.1745 332.945L73.7699 324.786C73.7699 324.786 73.7557 322.718 73.7795 319.118C74.6024 329.872 76.0183 340.572 78.0207 351.17L111.547 359.194L144.786 368.331C151.601 360.036 157.954 351.372 163.818 342.38C162.103 345.545 161.093 347.35 161.093 347.35C161.093 347.35 160.733 348.752 160.332 351.235C188.246 307.708 204.685 276.06 213.884 256.147C213.002 252.195 212.209 248.907 211.596 246.401Z" fill="url(#paint2_linear_305_112)"/>
<path fill-rule="evenodd" clip-rule="evenodd" d="M74.4194 317.852C74.3524 319.759 74.4768 321.667 74.7908 323.548C74.7908 323.548 73.6336 329.699 73.2294 329.807C72.8252 329.914 72.4768 327.425 72.1877 325.162C67.9735 298.712 64.5443 227.918 65.046 224.776C66.878 222.659 69.5896 219.682 72.289 216.719C74.9654 213.781 77.6298 210.857 79.413 208.796C73.5046 244.829 71.8287 281.43 74.4194 317.852ZM159.591 352.052C160.049 349.534 160.529 347.304 161.028 345.361C174.595 324.07 197.493 284.516 211.186 245.89C211.49 247.244 212.171 249.06 212.944 251.125C214.041 254.053 215.325 257.48 215.99 260.797C214.228 266.462 189.362 312.852 159.591 352.052Z" fill="url(#paint3_linear_305_112)"/>
<path d="M79.7855 362.247C79.3813 362.142 79.0168 361.92 78.737 361.61C78.4572 361.299 78.2742 360.914 78.2105 360.501L76.5546 350.098C76.4954 349.752 76.5242 349.396 76.6384 349.063C76.7527 348.731 76.9487 348.432 77.2084 348.196C77.4733 347.96 77.7894 347.79 78.1316 347.698C78.4738 347.606 78.8327 347.596 79.1798 347.667L146.037 363.581C146.372 363.666 146.681 363.83 146.94 364.059C147.198 364.289 147.398 364.576 147.522 364.899C147.647 365.221 147.692 365.568 147.655 365.911C147.618 366.255 147.499 366.584 147.309 366.873L141.558 375.513C141.301 375.867 140.947 376.139 140.539 376.297C140.132 376.455 139.687 376.492 139.258 376.404L79.7855 362.247Z" fill="#C7CAFF"/>
<path d="M145.5 365.676L139.771 374.322L80.3203 360.171L78.6587 349.79L145.494 365.698L145.5 365.676ZM146.566 361.526L79.731 345.618C79.0435 345.461 78.3279 345.473 77.6464 345.655C76.9649 345.837 76.3381 346.183 75.8206 346.662C75.3031 347.141 74.9105 347.74 74.677 348.405C74.4435 349.071 74.3761 349.783 74.4807 350.481L76.1366 360.884C76.2689 361.71 76.6403 362.48 77.205 363.098C77.7697 363.715 78.503 364.154 79.3142 364.36L138.743 378.506C139.597 378.71 140.494 378.648 141.312 378.328C142.13 378.009 142.831 377.446 143.321 376.717L149.071 368.077C149.45 367.496 149.685 366.833 149.756 366.143C149.827 365.453 149.732 364.756 149.479 364.111C149.231 363.477 148.835 362.911 148.325 362.461C147.814 362.011 147.204 361.688 146.544 361.521L146.566 361.526Z" fill="#C7CAFF"/>
<path d="M202.14 7.07137C204.656 7.71816 206.635 10.274 208.419 14.6859C243.49 101.896 232.864 183.337 211.142 245.878C215.767 264.504 230.294 326.361 227.832 353.425C224.89 385.471 152.837 455.595 152.837 455.595C152.837 455.595 141.063 448.945 144.335 431.455C147.606 413.965 161.08 345.891 161.08 345.891C161.08 345.891 162.081 344.102 163.782 340.962C157.924 349.913 151.576 358.533 144.767 366.783L111.799 357.721L78.5475 349.763C76.5939 339.296 75.217 328.729 74.4229 318.111C74.3993 321.682 74.4134 323.733 74.4134 323.733C74.4134 323.733 53.3912 389.866 47.8237 406.766C42.2562 423.666 28.7344 423.814 28.7344 423.814C28.7344 423.814 -0.661899 327.615 12.3239 298.15C23.1956 273.247 65.7944 226.074 78.8057 211.981C89.9331 146.717 119.94 70.2571 192.652 10.7509C196.342 7.74614 199.285 6.54952 201.824 7.10802L202.111 7.18178L202.14 7.07137ZM203.28 2.63461L202.839 2.52113C197.54 1.34741 192.875 4.6664 189.68 7.11618C156.039 34.5085 128.386 68.5216 108.437 107.045C91.9141 139.372 80.4403 174.039 74.4143 209.84C60.406 225.065 18.9468 271.284 8.01892 296.314C-5.41201 327.053 22.9807 421.206 24.303 425.217C24.5198 425.994 24.9392 426.7 25.5182 427.262C26.0972 427.825 26.815 428.223 27.5985 428.417C27.9926 428.523 28.3999 428.572 28.808 428.563C29.5156 428.557 45.7473 428.211 52.2964 408.316C55.9234 397.317 66.1852 365.175 72.8629 344.231C73.5261 348.425 74.0246 350.789 74.0675 350.988C74.2437 351.844 74.6565 352.634 75.2592 353.267C75.8618 353.9 76.63 354.352 77.4765 354.57L110.602 362.473L143.432 371.523C144.278 371.74 145.169 371.715 146.003 371.45C146.836 371.186 147.578 370.694 148.146 370.028C148.301 369.88 149.839 368.11 152.481 364.695C148.21 386.258 141.7 419.365 139.574 430.749C135.729 451.292 149.793 459.472 150.388 459.813C150.741 460.018 151.122 460.171 151.518 460.268C152.302 460.465 153.122 460.457 153.902 460.245C154.682 460.034 155.394 459.625 155.97 459.06C158.958 456.133 229.277 387.352 232.394 353.985C234.879 326.833 220.835 266.3 215.926 246.214C227.891 211.938 234.549 176.035 235.667 139.748C236.767 96.3791 228.943 53.2472 212.68 13.028C211.163 9.31996 208.576 4.18419 203.368 2.65729L203.28 2.63461Z" fill="url(#paint4_linear_305_112)"/>
<path d="M148.028 217.886C150.103 218.419 152.136 218.66 154.157 218.944C161.802 219.698 169.517 218.669 176.697 215.936C182.704 213.556 188.195 210.038 192.867 205.574C196.471 202.143 199.499 198.153 201.834 193.759C202.732 192.169 203.504 190.511 204.144 188.8C204.695 187.565 205.149 186.289 205.502 184.984C206.069 182.776 206.336 181.739 206.336 181.739C206.336 181.739 206.046 182.865 205.369 184.95C205.01 186.255 204.541 187.528 203.968 188.754C203.306 190.445 202.515 192.083 201.603 193.653C196.068 203.608 187.114 211.222 176.398 215.083C169.305 217.546 161.733 218.315 154.289 217.33C152.318 217.031 150.363 216.631 148.432 216.131C146.433 215.6 144.476 214.924 142.575 214.108C138.672 212.5 135.009 210.363 131.689 207.756C128.295 205.044 125.275 201.894 122.708 198.388C120.132 194.774 118.034 190.842 116.467 186.689C114.99 182.436 114.095 178.003 113.806 173.51C113.626 169.008 114.04 164.502 115.039 160.108C116.119 155.686 117.791 151.43 120.009 147.455C122.293 143.573 125.09 140.018 128.327 136.886C134.791 130.862 142.78 126.723 151.429 124.916C159.597 123.291 168.049 123.841 175.939 126.51C183.012 128.965 189.418 133.028 194.655 138.38C199.041 143.011 202.438 148.488 204.636 154.476C206.353 159.088 207.321 163.944 207.504 168.861C207.608 170.681 207.579 172.507 207.418 174.322C207.367 175.673 207.21 177.017 206.949 178.343L206.358 181.651C206.358 181.651 206.648 180.525 206.999 178.333C207.265 177.01 207.436 175.67 207.512 174.323C207.698 172.507 207.751 170.68 207.67 168.857C207.542 163.91 206.633 159.014 204.974 154.351C202.761 148.28 199.405 142.689 195.089 137.88C189.613 131.82 182.695 127.243 174.977 124.572C167.259 121.901 158.991 121.224 150.941 122.602C146.436 123.391 142.057 124.783 137.923 126.739C133.718 128.85 129.818 131.52 126.329 134.678C122.84 137.962 119.813 141.704 117.328 145.801C112.332 154.152 110.031 163.84 110.738 173.545C111.356 183.059 114.734 192.187 120.459 199.811C123.274 203.425 126.563 206.645 130.235 209.383C133.789 212.003 137.687 214.122 141.819 215.678C143.837 216.551 145.912 217.289 148.028 217.886Z" fill="#D6D8FF"/>
<path d="M166.527 134.637C159.482 132.961 152.099 133.41 145.31 135.93C138.521 138.449 132.632 142.925 128.386 148.791C124.141 154.657 121.73 161.651 121.459 168.887C121.188 176.123 123.069 183.277 126.863 189.445C130.658 195.612 136.196 200.516 142.778 203.536C149.359 206.556 156.688 207.557 163.839 206.412C170.989 205.267 177.639 202.028 182.948 197.103C188.258 192.179 191.987 185.791 193.666 178.747C195.912 169.299 194.315 159.346 189.226 151.075C184.138 142.804 175.973 136.891 166.527 134.637Z" fill="#D6D8FF"/>
<path d="M169.514 135.405C162.47 133.729 155.086 134.178 148.297 136.698C141.508 139.217 135.619 143.693 131.373 149.559C127.128 155.425 124.718 162.419 124.446 169.655C124.175 176.891 126.056 184.045 129.851 190.213C133.645 196.38 139.184 201.284 145.765 204.304C152.347 207.324 159.676 208.325 166.826 207.18C173.976 206.035 180.626 202.796 185.936 197.871C191.245 192.947 194.975 186.559 196.654 179.515C198.9 170.067 197.303 160.114 192.214 151.843C187.125 143.572 178.96 137.66 169.514 135.405Z" fill="white"/>
<path fill-rule="evenodd" clip-rule="evenodd" d="M101.371 258.157L114.62 261.562C116.452 262.033 117.54 263.875 117.069 265.707C116.599 267.538 114.757 268.627 112.925 268.156L99.6763 264.751C97.8447 264.28 96.756 262.438 97.2268 260.607C97.6976 258.775 99.5395 257.686 101.371 258.157ZM104.56 273.101C102.729 272.63 100.887 273.719 100.416 275.55C99.9451 277.382 101.034 279.224 102.865 279.694C104.697 280.165 106.539 279.077 107.01 277.245C107.542 275.429 106.392 273.571 104.56 273.101ZM116.115 283.1L129.364 286.505C131.195 286.976 133.037 285.887 133.508 284.056C133.979 282.224 132.89 280.382 131.058 279.911L117.81 276.506C115.978 276.035 114.136 277.124 113.665 278.956C113.194 280.787 114.283 282.629 116.115 283.1ZM140.101 285.751C140.572 283.919 142.414 282.83 144.246 283.301C146.077 283.772 147.166 285.614 146.695 287.445C146.224 289.277 144.382 290.366 142.551 289.895C140.719 289.424 139.63 287.582 140.101 285.751ZM157.432 286.69C155.601 286.22 153.759 287.308 153.288 289.14C152.817 290.972 153.906 292.814 155.738 293.284C157.569 293.755 159.411 292.666 159.882 290.835C160.414 289.019 159.264 287.161 157.432 286.69ZM110.275 292.144C110.746 290.312 112.588 289.223 114.42 289.694C116.251 290.165 117.34 292.007 116.869 293.839C116.399 295.67 114.557 296.759 112.725 296.288C110.893 295.817 109.805 293.975 110.275 292.144ZM140.855 296.489L127.607 293.084C125.775 292.613 123.933 293.702 123.462 295.533C122.991 297.365 124.08 299.207 125.912 299.678L139.16 303.083C140.992 303.554 142.834 302.465 143.305 300.633C143.776 298.802 142.687 296.96 140.855 296.489ZM126.112 271.546L139.361 274.951C141.193 275.422 143.035 274.333 143.506 272.502C143.976 270.67 142.888 268.828 141.056 268.357L127.807 264.952C125.976 264.481 124.134 265.57 123.663 267.401C123.192 269.233 124.281 271.075 126.112 271.546ZM154.243 271.747L167.492 275.152C169.324 275.623 170.412 277.465 169.942 279.297C169.471 281.128 167.629 282.217 165.797 281.746L152.548 278.341C150.717 277.87 149.628 276.028 150.099 274.196C150.57 272.365 152.412 271.276 154.243 271.747Z" fill="url(#paint5_linear_305_112)"/>
</g>
<defs>
<linearGradient id="paint0_linear_305_112" x1="87.8993" y1="320.824" x2="-7.04359" y2="333.183" gradientUnits="userSpaceOnUse">
<stop stop-color="#F1F1FF"/>
<stop offset="1" stop-color="#C7CAFF"/>
</linearGradient>
<linearGradient id="paint1_linear_305_112" x1="238.292" y1="357.167" x2="173.736" y2="311.814" gradientUnits="userSpaceOnUse">
<stop stop-color="#C7CAFF"/>
<stop offset="1" stop-color="#F1F1FF"/>
</linearGradient>
<linearGradient id="paint2_linear_305_112" x1="334.974" y1="140.75" x2="79.8933" y2="59.8592" gradientUnits="userSpaceOnUse">
<stop offset="0.166427" stop-color="#C7CAFF"/>
<stop offset="0.574141" stop-color="#F1F1FF"/>
<stop offset="0.704415" stop-color="#F1F1FF"/>
<stop offset="1" stop-color="#C7CAFF"/>
</linearGradient>
<linearGradient id="paint3_linear_305_112" x1="93.0129" y1="342.496" x2="154.741" y2="58.5581" gradientUnits="userSpaceOnUse">
<stop stop-color="#C7CAFF"/>
<stop offset="1" stop-color="#F1F1FF"/>
</linearGradient>
<linearGradient id="paint4_linear_305_112" x1="110.265" y1="363.808" x2="236.602" y2="-127.712" gradientUnits="userSpaceOnUse">
<stop stop-color="#C7CAFF"/>
<stop offset="1" stop-color="#F1F1FF"/>
</linearGradient>
<linearGradient id="paint5_linear_305_112" x1="106.138" y1="266.412" x2="158.937" y2="279.983" gradientUnits="userSpaceOnUse">
<stop stop-color="#FF0068"/>
<stop offset="1" stop-color="#8905C9"/>
</linearGradient>
</defs>
</svg>
