<svg width="558" height="514" viewBox="0 0 558 514" fill="none" xmlns="http://www.w3.org/2000/svg">
<mask id="mask0_101_385" style="mask-type:alpha" maskUnits="userSpaceOnUse" x="0" y="0" width="558" height="514">
<rect width="558" height="514" fill="#C4C4C4"/>
</mask>
<g mask="url(#mask0_101_385)">
<path fill-rule="evenodd" clip-rule="evenodd" d="M27.5 212C12.3122 212 0 224.312 0 239.5C0 252.977 9.69486 264.19 22.491 266.545C21.5247 269.352 21 272.365 21 275.5C21 290.688 33.3122 303 48.5 303H125.5C140.688 303 153 290.688 153 275.5C153 260.312 140.688 248 125.5 248H114.661C115.53 245.323 116 242.466 116 239.5C116 224.312 103.688 212 88.5 212H27.5Z" fill="#F2F2FF" fill-opacity="0.8"/>
<path fill-rule="evenodd" clip-rule="evenodd" d="M442.5 4C425.655 4 412 17.6553 412 34.5C412 37.817 412.529 41.0103 413.509 44H400.5C383.655 44 370 57.6553 370 74.5C370 91.3447 383.655 105 400.5 105H486.5C503.345 105 517 91.3447 517 74.5C517 71.0401 516.424 67.7147 515.362 64.6145C529.896 62.2861 541 49.6898 541 34.5C541 17.6553 527.345 4 510.5 4H442.5Z" fill="#F2F2FF" fill-opacity="0.8"/>
<path d="M471.494 376.962C467.442 352.041 443.157 303.445 430.44 279.16C426.242 302.079 417.699 338.983 400.492 391.142C401.395 407.032 404.617 463.853 405.691 480.158C406.96 499.171 420.945 502.93 420.945 502.93C420.945 502.93 476.986 410.986 471.494 376.962Z" fill="url(#paint0_linear_101_385)"/>
<path d="M233.223 376.961C227.707 410.986 283.747 502.93 283.747 502.93C283.747 502.93 297.733 499.171 299.002 480.157C300.003 465.244 302.761 416.404 303.884 396.024C286.237 343.254 277.328 305.715 272.813 281.82C259.828 306.838 237.104 352.92 233.223 376.961Z" fill="url(#paint1_linear_101_385)"/>
<path d="M425.51 269.86C431.367 199.2 420.628 111.893 361.049 30.7863C358.022 26.6858 355.288 24.6599 352.506 24.5623H352.189C349.406 24.5623 346.673 26.6858 343.646 30.7863C284.018 111.893 273.352 199.2 279.209 269.86C277.599 272.838 275.426 276.938 272.863 281.82C277.379 305.642 286.288 343.254 303.934 396.024L304.447 386.944C304.447 386.944 303.886 384.821 302.958 381.111C306.648 391.956 310.934 402.59 315.797 412.963L352.408 412.353L389.02 412.963C393.837 402.627 398.082 392.035 401.736 381.233C400.809 384.943 400.248 387.066 400.248 387.066C400.248 387.066 400.248 388.604 400.492 391.264C417.699 339.105 426.242 302.201 430.44 279.282C428.487 275.45 426.803 272.277 425.51 269.86Z" fill="url(#paint2_linear_101_385)"/>
<path fill-rule="evenodd" clip-rule="evenodd" d="M302.885 380.964C303.324 382.959 303.962 384.905 304.789 386.773C304.789 386.773 305.228 393.461 304.838 393.681C304.447 393.9 303.422 391.411 302.519 389.141C291.096 362.829 268.666 290.314 268.348 286.921C269.684 284.237 271.703 280.427 273.713 276.634C275.706 272.873 277.69 269.129 278.99 266.516C282.468 305.466 290.488 343.876 302.885 380.964ZM400.345 393.73C400.15 390.996 400.052 388.555 400.052 386.408C408.448 360.706 421.653 313.575 425.558 269.861C426.235 271.183 427.425 272.886 428.778 274.821C430.696 277.566 432.942 280.778 434.516 284.041C434.199 290.387 420.774 345.134 400.345 393.73Z" fill="url(#paint3_linear_101_385)"/>
<path d="M320.286 425.582C319.839 425.58 319.402 425.448 319.029 425.2C318.656 424.953 318.363 424.602 318.187 424.191L313.696 413.842C313.542 413.498 313.477 413.122 313.507 412.746C313.537 412.371 313.661 412.009 313.867 411.694C314.079 411.38 314.361 411.119 314.692 410.932C315.022 410.746 315.392 410.639 315.771 410.62L389.36 409.302C389.73 409.301 390.095 409.389 390.424 409.558C390.753 409.727 391.037 409.972 391.252 410.273C391.467 410.574 391.607 410.922 391.66 411.288C391.713 411.654 391.678 412.028 391.557 412.378L387.896 422.873C387.723 423.308 387.429 423.685 387.048 423.957C386.667 424.23 386.216 424.387 385.748 424.411L320.286 425.582Z" fill="#C7CAFF"/>
<path d="M389.36 411.62L385.723 422.115L320.286 423.287L315.795 412.962L389.36 411.644V411.62ZM389.36 407.031L315.795 408.349C315.04 408.369 314.301 408.573 313.643 408.943C312.984 409.313 312.426 409.839 312.017 410.474C311.608 411.109 311.361 411.835 311.296 412.587C311.231 413.34 311.351 414.097 311.646 414.793L316.137 425.141C316.494 425.963 317.085 426.663 317.835 427.153C318.585 427.643 319.463 427.902 320.359 427.9V427.9L385.772 426.728C386.713 426.712 387.626 426.409 388.389 425.859C389.153 425.31 389.73 424.54 390.043 423.653L393.705 413.157C393.943 412.454 394.009 411.704 393.899 410.969C393.789 410.235 393.504 409.537 393.07 408.935C392.643 408.344 392.082 407.863 391.433 407.531C390.783 407.2 390.065 407.029 389.336 407.031H389.36Z" fill="#C7CAFF"/>
<path d="M352.505 24.5621C355.287 24.5621 358.021 26.6856 361.047 30.7861C420.675 111.893 431.366 199.2 425.508 269.86C435.271 287.946 466.83 348.233 471.492 376.961C476.984 410.986 420.944 502.93 420.944 502.93C420.944 502.93 406.958 499.171 405.689 480.157C404.42 461.144 400.246 386.944 400.246 386.944C400.246 386.944 400.807 384.821 401.735 381.111C398.045 391.956 393.759 402.59 388.896 412.963L352.285 412.353L315.673 412.963C310.856 402.627 306.611 392.034 302.957 381.233C303.884 384.943 304.446 387.066 304.446 387.066C304.446 387.066 300.272 461.266 299.003 480.279C297.733 499.293 283.748 503.052 283.748 503.052C283.748 503.052 227.61 411.108 233.224 377.083C237.861 348.355 269.469 288.068 279.208 269.982C273.35 199.322 284.09 112.015 343.644 30.9081C346.671 26.8076 349.405 24.7818 352.187 24.6842H352.505V24.5621ZM352.505 19.6561H352.016C346.207 19.8514 342.253 24.5377 339.593 27.9304C312.002 65.3114 292.388 107.963 281.966 153.24C273.447 191.175 270.788 230.192 274.082 268.933C263.611 288.459 232.931 347.452 228.269 376.327C222.533 411.791 277.084 501.88 279.525 505.688C279.957 506.436 280.581 507.057 281.331 507.486C282.081 507.914 282.932 508.136 283.797 508.129C284.234 508.134 284.669 508.076 285.09 507.958C285.822 507.763 302.566 503.076 304.055 480.694C304.885 468.32 306.96 432.245 308.302 408.74C310.108 412.914 311.255 415.233 311.353 415.428C311.764 416.269 312.403 416.978 313.197 417.474C313.991 417.97 314.908 418.234 315.844 418.235L352.309 417.6L388.774 418.235C389.711 418.234 390.628 417.97 391.422 417.474C392.216 416.978 392.854 416.269 393.265 415.428C393.387 415.233 394.51 412.987 396.341 408.74C397.659 432.245 399.733 468.32 400.563 480.694C402.052 503.027 418.82 507.763 419.528 507.958C419.949 508.076 420.385 508.134 420.822 508.129C421.687 508.124 422.536 507.897 423.288 507.469C424.041 507.042 424.67 506.428 425.118 505.688C427.436 501.856 482.037 411.767 476.374 376.327C471.712 347.501 441.007 288.459 430.56 268.933C433.833 230.191 431.166 191.176 422.652 153.24C412.231 107.963 392.616 65.3114 365.026 27.9304C362.463 24.4889 358.411 19.8514 352.602 19.6561H352.505Z" fill="url(#paint4_linear_101_385)"/>
<path d="M352.581 257.652C354.876 257.652 357.048 257.359 359.22 257.115C367.351 255.86 375.079 252.735 381.797 247.987C387.394 243.917 392.152 238.803 395.807 232.927C398.631 228.408 400.708 223.463 401.958 218.283C402.465 216.393 402.825 214.468 403.032 212.522C403.274 211.095 403.405 209.65 403.423 208.202C403.423 205.761 403.423 204.614 403.423 204.614C403.423 204.614 403.423 205.859 403.276 208.202C403.251 209.652 403.104 211.097 402.837 212.522C402.601 214.453 402.217 216.362 401.69 218.234C398.603 230.036 391.346 240.319 381.26 247.181C374.559 251.627 366.911 254.444 358.927 255.407C356.803 255.622 354.668 255.728 352.533 255.724C350.318 255.706 348.107 255.527 345.918 255.187C341.441 254.56 337.072 253.32 332.933 251.502C328.689 249.593 324.717 247.131 321.12 244.179C317.485 241.117 314.26 237.597 311.527 233.708C308.862 229.691 306.752 225.331 305.255 220.748C303.867 216.126 303.096 211.342 302.96 206.518C302.901 201.643 303.501 196.783 304.742 192.069C306.076 187.434 308.03 183 310.551 178.888C315.65 170.918 322.833 164.494 331.322 160.314C339.362 156.451 348.275 154.768 357.17 155.433C365.161 156.094 372.889 158.6 379.747 162.755C385.532 166.389 390.515 171.165 394.392 176.789C397.402 181.115 399.701 185.894 401.202 190.946C401.795 192.806 402.251 194.707 402.568 196.633C402.875 198.047 403.071 199.484 403.154 200.929L403.423 204.517C403.423 204.517 403.423 203.272 403.203 200.904C403.126 199.462 402.946 198.026 402.666 196.609C402.374 194.676 401.942 192.767 401.372 190.897C399.921 185.8 397.672 180.964 394.709 176.57C390.795 170.863 385.824 165.958 380.064 162.12C372.769 157.295 364.373 154.392 355.655 153.679C346.938 152.967 338.182 154.468 330.199 158.044C325.737 160.064 321.567 162.675 317.8 165.806C314.001 169.116 310.667 172.926 307.891 177.131C305.148 181.468 303.005 186.156 301.52 191.068C298.564 201.062 298.76 211.724 302.082 221.602C305.258 231.306 311.196 239.873 319.167 246.254C323.051 249.252 327.319 251.715 331.859 253.576C336.244 255.347 340.851 256.505 345.552 257.018C347.878 257.385 350.227 257.597 352.581 257.652Z" fill="#D6D8FF"/>
<path d="M349.575 166.372C341.821 166.511 334.282 168.946 327.912 173.369C321.542 177.792 316.627 184.005 313.787 191.221C310.948 198.438 310.312 206.334 311.96 213.912C313.608 221.49 317.466 228.409 323.046 233.795C328.627 239.18 335.678 242.79 343.31 244.168C350.942 245.546 358.811 244.63 365.922 241.536C373.033 238.442 379.067 233.309 383.261 226.786C387.455 220.263 389.621 212.643 389.484 204.889C389.295 194.49 384.985 184.592 377.502 177.37C370.018 170.148 359.973 166.192 349.575 166.372Z" fill="#D6D8FF"/>
<path d="M352.878 166.372C345.124 166.511 337.586 168.946 331.216 173.369C324.846 177.792 319.93 184.005 317.091 191.221C314.251 198.438 313.615 206.334 315.263 213.912C316.911 221.49 320.769 228.409 326.35 233.795C331.93 239.18 338.982 242.79 346.613 244.168C354.245 245.546 362.114 244.63 369.225 241.536C376.336 238.442 382.37 233.309 386.564 226.786C390.758 220.263 392.924 212.643 392.788 204.889C392.598 194.49 388.288 184.592 380.805 177.37C373.321 170.148 363.277 166.192 352.878 166.372Z" fill="white"/>
<path fill-rule="evenodd" clip-rule="evenodd" d="M314.924 311.861H329.574C331.6 311.861 333.22 313.482 333.22 315.507C333.22 317.532 331.6 319.152 329.574 319.152H314.924C312.899 319.152 311.279 317.532 311.279 315.507C311.279 313.482 312.899 311.861 314.924 311.861ZM322.216 326.511C320.191 326.511 318.571 328.131 318.571 330.157C318.571 332.182 320.191 333.802 322.216 333.802C324.242 333.802 325.862 332.182 325.862 330.157C325.929 328.131 324.242 326.511 322.216 326.511ZM336.867 333.802H351.517C353.542 333.802 355.162 332.182 355.162 330.157C355.162 328.131 353.542 326.511 351.517 326.511H336.867C334.841 326.511 333.221 328.131 333.221 330.157C333.221 332.182 334.841 333.802 336.867 333.802ZM362.453 330.157C362.453 328.131 364.073 326.511 366.099 326.511C368.124 326.511 369.744 328.131 369.744 330.157C369.744 332.182 368.124 333.802 366.099 333.802C364.073 333.802 362.453 332.182 362.453 330.157ZM380.68 326.511C378.655 326.511 377.034 328.131 377.034 330.157C377.034 332.182 378.655 333.802 380.68 333.802C382.705 333.802 384.326 332.182 384.326 330.157C384.393 328.131 382.705 326.511 380.68 326.511ZM333.221 344.739C333.221 342.714 334.841 341.094 336.867 341.094C338.892 341.094 340.512 342.714 340.512 344.739C340.512 346.765 338.892 348.385 336.867 348.385C334.841 348.385 333.221 346.765 333.221 344.739ZM366.098 341.094H351.448C349.423 341.094 347.802 342.714 347.802 344.739C347.802 346.765 349.423 348.385 351.448 348.385H366.098C368.123 348.385 369.744 346.765 369.744 344.739C369.744 342.714 368.123 341.094 366.098 341.094ZM344.156 319.152H358.806C360.832 319.152 362.452 317.532 362.452 315.507C362.452 313.482 360.832 311.861 358.806 311.861H344.156C342.131 311.861 340.511 313.482 340.511 315.507C340.511 317.532 342.131 319.152 344.156 319.152ZM373.388 311.861H388.038C390.063 311.861 391.684 313.482 391.684 315.507C391.684 317.532 390.063 319.152 388.038 319.152H373.388C371.363 319.152 369.743 317.532 369.743 315.507C369.743 313.482 371.363 311.861 373.388 311.861Z" fill="url(#paint5_linear_101_385)"/>
<path d="M276.602 400.214H95.8826V404.712H276.602V400.214Z" fill="url(#paint6_linear_101_385)"/>
<path d="M246.753 283.827H121.52V288.324H246.753V283.827Z" fill="url(#paint7_linear_101_385)"/>
<path d="M440.007 514.5C566.753 514.5 669.5 511.648 669.5 508.129C669.5 504.61 566.753 501.758 440.007 501.758C313.262 501.758 210.515 504.61 210.515 508.129C210.515 511.648 313.262 514.5 440.007 514.5Z" fill="url(#paint8_radial_101_385)"/>
<path d="M304.752 506.963L228.081 194.631H288.293C292.842 194.631 296.531 190.94 296.531 186.386C296.531 181.833 292.843 178.141 288.293 178.141H224.033L223.598 176.372V67.9583C223.598 66.7157 222.593 65.7096 221.352 65.7096H191.397V9.49411C191.397 4.5271 187.374 0.499512 182.41 0.499512C177.448 0.499512 173.424 4.5271 173.424 9.49411V65.7096H144.965C143.724 65.7096 142.719 66.7157 142.719 67.9583V179.393L70.5531 507.015C70.4058 507.678 70.5686 508.377 70.9962 508.908C71.4216 509.44 72.0671 509.747 72.7467 509.747H302.57C303.261 509.747 303.913 509.431 304.338 508.886C304.764 508.342 304.916 507.635 304.752 506.963ZM272.288 393.561L184.998 285.702L222.739 194.631H223.455L272.288 393.561ZM219.172 177.179L219.223 177.39H184.657V121.175H219.105V176.644C219.106 176.823 219.128 177.004 219.172 177.179ZM180.164 194.631V272.918L152.621 194.631H180.164ZM184.657 194.631H217.875L184.657 274.782V194.631ZM180.164 177.39H147.212V121.174H180.164V177.39ZM147.683 194.136L179.894 285.693L100.332 392.709L144.512 192.143C145.388 193.041 146.475 193.713 147.683 194.136ZM180.164 292.864V500.228L98.7416 402.384L180.164 292.864ZM184.657 292.426L273.645 402.379L184.657 500.614V292.426ZM219.106 116.677H184.658V70.2069H219.106V116.677ZM180.164 70.2069V116.677H147.212V70.2069H180.164ZM97.0895 407.429L178.495 505.25H75.542L97.0895 407.429ZM186.523 505.25L275.574 406.947L299.705 505.25H186.523Z" fill="url(#paint9_linear_101_385)"/>
</g>
<defs>
<linearGradient id="paint0_linear_101_385" x1="481.996" y1="378.424" x2="405.197" y2="349.443" gradientUnits="userSpaceOnUse">
<stop stop-color="#C7CAFF"/>
<stop offset="1" stop-color="#F1F1FF"/>
</linearGradient>
<linearGradient id="paint1_linear_101_385" x1="316.149" y1="380.818" x2="223.88" y2="417.782" gradientUnits="userSpaceOnUse">
<stop stop-color="#F1F1FF"/>
<stop offset="1" stop-color="#C7CAFF"/>
</linearGradient>
<linearGradient id="paint2_linear_101_385" x1="524.499" y1="128.547" x2="240.694" y2="112.78" gradientUnits="userSpaceOnUse">
<stop offset="0.166427" stop-color="#C7CAFF"/>
<stop offset="0.574141" stop-color="#F1F1FF"/>
<stop offset="0.704415" stop-color="#F1F1FF"/>
<stop offset="1" stop-color="#C7CAFF"/>
</linearGradient>
<linearGradient id="paint3_linear_101_385" x1="328.741" y1="401.568" x2="317.069" y2="90.6015" gradientUnits="userSpaceOnUse">
<stop stop-color="#C7CAFF"/>
<stop offset="1" stop-color="#F1F1FF"/>
</linearGradient>
<linearGradient id="paint4_linear_101_385" x1="352.316" y1="419.076" x2="352.316" y2="-124.428" gradientUnits="userSpaceOnUse">
<stop stop-color="#C7CAFF"/>
<stop offset="1" stop-color="#F1F1FF"/>
</linearGradient>
<linearGradient id="paint5_linear_101_385" x1="322.07" y1="319.152" x2="380.452" y2="319.152" gradientUnits="userSpaceOnUse">
<stop stop-color="#FF0068"/>
<stop offset="1" stop-color="#8905C9"/>
</linearGradient>
<linearGradient id="paint6_linear_101_385" x1="95.8829" y1="402.463" x2="276.602" y2="402.463" gradientUnits="userSpaceOnUse">
<stop stop-color="#F0EFF5"/>
<stop offset="0.013" stop-color="#F0EFF5"/>
<stop offset="1" stop-color="#A8A8D2"/>
</linearGradient>
<linearGradient id="paint7_linear_101_385" x1="121.52" y1="286.075" x2="246.752" y2="286.075" gradientUnits="userSpaceOnUse">
<stop stop-color="#F0EFF5"/>
<stop offset="0.013" stop-color="#F0EFF5"/>
<stop offset="1" stop-color="#A8A8D2"/>
</linearGradient>
<radialGradient id="paint8_radial_101_385" cx="0" cy="0" r="1" gradientUnits="userSpaceOnUse" gradientTransform="translate(439.993 508.144) scale(162.415 4.68783)">
<stop stop-color="#C0C0DF"/>
<stop offset="0.987" stop-color="white" stop-opacity="0"/>
</radialGradient>
<linearGradient id="paint9_linear_101_385" x1="-14.1978" y1="219.829" x2="547.528" y2="359.016" gradientUnits="userSpaceOnUse">
<stop stop-color="#F0EFF5"/>
<stop offset="0.0001" stop-color="#F0EFF5"/>
<stop offset="1" stop-color="#A3A8E9"/>
</linearGradient>
</defs>
</svg>
