<svg width="252" height="491" viewBox="0 0 252 491" fill="none" xmlns="http://www.w3.org/2000/svg">
<path d="M0 482.32C0 486.785 56.2852 490.404 125.716 490.404C195.146 490.404 251.432 486.785 251.432 482.32H0Z" fill="url(#paint0_radial)"/>
<path d="M64.5482 481.101C65.4646 484.713 69.1473 487.919 76.2994 487.919H90.8701C95.5751 487.919 97.6363 483.479 96.614 479.849C96.5264 479.515 96.4023 479.198 96.2615 478.881C95.5042 477.136 94.0772 475.71 92.8437 474.194C88.8621 469.279 91.5049 450.268 91.5049 450.268H74.5375C73.3218 457.791 68.6362 466.002 65.8171 473.437C65.658 473.86 65.4823 474.283 65.3232 474.724C64.5831 476.802 64.0016 478.987 64.5482 481.101Z" fill="url(#paint1_linear)"/>
<path d="M148.051 398.047C146.965 406.775 146.878 415.078 147.361 423.513C147.904 432.814 150.346 441.157 152.649 450.018L157.572 450.001H167.591C167.738 428.304 173.151 407.67 174.515 386.091C175.029 377.846 174.926 369.91 176.026 361.725C176.672 356.854 178.476 352.307 179.312 347.421C182.98 326.165 184.183 312.008 183.537 293.803C182.437 261.999 179.767 235.74 166.99 207.134C160.843 220.175 151.542 240.332 145.983 264.155C143.489 274.864 139.098 286.525 141.391 298.189C146.857 325.99 150.824 355.064 151.264 368.985C151.586 378.682 149.21 388.775 148.051 398.047Z" fill="url(#paint2_linear)"/>
<path d="M151.751 476.764C158.728 477.697 165.776 477.909 172.823 478.138C174.004 478.174 175.202 478.191 176.294 477.803C177.598 477.345 178.602 476.341 179.659 475.478C182.302 473.292 185.421 471.742 188.733 470.967C186.354 469.628 183.994 468.272 181.739 466.756C175.677 462.704 169.969 456.908 167.609 450.018H152.65C152.65 450.018 155.24 460.026 153.743 466.192C153.338 467.867 152.474 469.364 151.963 471.002C151.399 472.87 151.328 474.879 151.751 476.764Z" fill="url(#paint3_linear)"/>
<path d="M151.751 476.764C151.928 477.522 152.174 478.262 152.492 478.966C153.284 480.658 154.571 482.226 156.333 482.86C157.618 483.335 159.045 483.283 160.42 483.248C170.339 482.93 178.25 483.389 188.099 484.604C192.468 485.15 197.33 485.731 200.925 483.177C201.965 482.437 202.916 481.239 202.634 479.989C202.422 478.966 201.489 478.279 200.608 477.716C196.767 475.249 192.715 473.17 188.733 470.968C185.421 471.743 182.302 473.293 179.659 475.478C178.602 476.342 177.598 477.346 176.294 477.803C175.202 478.191 174.004 478.174 172.823 478.138C165.776 477.909 158.728 477.697 151.751 476.764Z" fill="url(#paint4_linear)"/>
<path d="M64.5482 481.101C65.4646 484.713 69.1473 487.919 76.2994 487.919H90.8701C95.5751 487.919 97.6363 483.479 96.614 479.849C96.5264 479.515 96.4023 479.197 96.2615 478.881C95.6273 478.845 95.0108 478.722 94.3938 478.563C89.0728 477.207 84.9504 472.767 79.6295 471.463C76.7057 470.759 73.604 471.058 70.7145 471.921C68.7592 472.486 66.8211 473.366 65.3232 474.723C64.5831 476.802 64.0016 478.987 64.5482 481.101Z" fill="url(#paint5_linear)"/>
<path d="M148.051 398.047C146.965 406.775 146.877 415.078 147.361 423.513C147.904 432.814 150.346 441.158 152.649 450.018L157.571 450.001C154.902 441.405 151.479 418.764 152.587 407.332C154.91 383.377 159.026 366.677 158.908 360.868C158.717 351.524 149.019 274.468 148.52 271.886C148.227 270.346 147.905 265.344 146.554 264.419C146.364 264.287 146.173 264.214 145.983 264.156C143.489 274.864 138.839 283.428 140.873 295.141C146.971 330.258 150.824 355.064 151.263 368.986C151.586 378.682 149.209 388.775 148.051 398.047Z" fill="url(#paint6_linear)"/>
<path d="M74.5505 450.268H91.5179C95.1318 441.371 98.9736 435.434 102.588 426.536C105.846 418.502 109.104 410.485 111.888 402.257C121.828 372.993 154.452 235.234 166.984 207.132H122.045C116.267 207.132 110.119 208.794 110.119 208.794C110.119 208.794 93.9891 245.718 96.7915 256.024C100.9 271.176 99.1999 310.727 99.4573 322.76C99.6239 330.882 97.7976 353.085 95.5478 360.713C93.801 366.633 90.3558 371.76 87.5664 377.186C76.0614 399.404 75.1439 424.563 74.5505 450.268Z" fill="url(#paint7_linear)"/>
<path d="M74.5505 450.268H76.7708C75.7373 430.201 83.3548 411.067 90.8514 392.867C94.4293 384.181 98.0062 375.495 101.566 366.81C105.455 357.365 109.357 347.852 111.467 337.739C114.188 324.789 113.882 311.205 114.687 297.85C116.512 267.546 124.083 237.647 123.777 207.132H122.819H122.044C116.266 207.132 110.119 207.132 110.119 207.132C110.119 207.132 92.6826 240.871 96.791 256.024C100.899 271.176 99.1993 308.376 99.4568 320.41C99.6234 328.531 97.7971 353.084 95.5472 360.713C93.8005 366.633 90.3553 371.76 87.5659 377.186C76.0614 399.404 75.1439 424.563 74.5505 450.268Z" fill="url(#paint8_linear)"/>
<path d="M132.797 113.4C132.797 113.4 145.451 108.52 160.819 115.595C176.188 122.671 193.63 130.938 199.805 124.54C205.982 118.143 213.803 102.779 214.528 96.9736C215.253 91.1681 226.407 88.2898 228.666 97.5651C230.924 106.841 231.392 122.888 212.49 145.545C195.498 165.913 177.437 154.427 164.561 146.05C151.685 137.674 132.727 121.48 132.797 113.4Z" fill="url(#paint9_linear)"/>
<path d="M140.637 87.3084C141.615 82.9439 145.65 79.9671 149.786 78.365C153.922 76.7628 158.408 76.1281 162.444 74.2898C164.174 73.5017 165.847 72.4595 166.972 70.9196C170.652 65.8799 166.963 58.7861 167.245 52.5022C167.517 46.4666 171.589 40.5888 169.772 34.8074C168.219 29.8642 162.902 27.1466 157.886 26.0263C152.871 24.906 147.552 24.7835 142.934 22.4883C139.638 20.8499 136.945 18.2193 134.058 15.9203C128.548 11.5339 121.955 8.21131 114.98 7.86024C108.005 7.50926 100.676 10.5472 97.0625 16.5285C95.0465 19.8657 94.2185 23.9479 91.6179 26.8415C86.9323 32.0558 78.813 31.3654 71.8744 32.3413C67.6155 32.9403 63.3436 34.4006 60.2335 37.3696C57.1234 40.3386 55.4061 45.0276 56.7404 49.1729C58.1456 53.5393 62.3378 56.2528 65.589 59.4805C68.8403 62.7082 71.3132 68.0555 68.5826 71.6773C67.1469 73.581 64.6542 74.3926 63.0917 76.191C61.1348 78.4432 61.0322 81.9405 62.289 84.6871C63.5458 87.4331 65.944 89.5064 68.5388 91.0273C76.6881 95.804 87.4525 95.5281 95.2375 90.3421C93.8557 94.1602 96.5089 98.953 100.474 99.8029C104.439 100.652 108.711 97.3429 108.905 93.2705L140.637 87.3084Z" fill="#231F20"/>
<path d="M105.192 81.6776C102.373 74.974 101.281 67.6814 100.7 60.4469L108.267 52.4931C113.239 47.2473 120.862 44.0945 127.831 47.5332C131.559 49.3729 135.358 51.6144 137.429 55.2442C138.46 57.0523 138.994 59.0959 139.442 61.1268C139.932 63.352 140.335 65.6208 140.226 67.8915C140.069 71.1745 138.854 74.3059 138.501 77.5708C138.088 81.3974 138.859 85.3823 137.774 89.0649C136.864 92.1568 134.621 94.8095 131.741 96.2007C126.868 98.5544 120.766 97.1013 116.45 93.733C112.133 90.3646 109.337 85.3886 107.237 80.3165L105.192 81.6776Z" fill="url(#paint10_linear)"/>
<path d="M134.905 50.1968C132.76 49.6339 130.487 50.9777 129.334 52.8671C128.181 54.7565 127.929 57.0659 127.872 59.294C127.784 62.74 128.088 66.2552 127.222 69.5808C126.355 72.9064 123.952 76.113 120.575 76.611C119.769 76.7298 118.9 76.7031 118.21 77.1346C117.327 77.6873 117.014 78.8035 116.655 79.7887C115.081 84.1103 111.245 87.4951 106.784 88.4991C104.022 81.3813 101.324 74.8831 100.106 67.3554C99.6668 64.6464 99.34 61.8085 100.209 59.2222C101.064 56.6745 102.978 54.6643 104.35 52.3622C106.503 48.7476 107.357 44.3411 110.104 41.1658C112.554 38.3331 116.295 36.8354 120.034 36.6148C123.773 36.3942 127.516 37.3542 130.991 38.8133L134.905 50.1968Z" fill="#231F20"/>
<path d="M120.5 111.5C108.782 111.854 96.0754 118.24 92.0001 132C87.9247 145.76 92.0001 183 111.623 209.876C111.623 209.876 116.292 211.657 140.771 211.579C157.977 211.524 167.856 208.624 167.856 208.624C167.856 208.624 176.693 151.527 172.77 142.567C165.902 126.884 152.745 116.255 148.127 113.594C143.508 110.933 128.011 111.273 120.5 111.5Z" fill="url(#paint11_linear)"/>
<path opacity="0.5" d="M115.134 165.213C115.134 165.213 106.005 151.5 106.005 144.5C106.005 136 104.005 126.5 106.005 116C102.734 118.255 95.0882 122.881 94.0052 126.5C89.897 140.226 90.5051 183.5 111.384 209.729C111.384 209.729 116.797 211.919 126.181 211.537C126.825 209.549 126.815 208.066 126.815 208.066C113.015 188.916 115.134 165.213 115.134 165.213Z" fill="url(#paint12_linear)"/>
<path d="M232.91 103.181C232.981 103.758 232.706 104.46 232.294 104.754L217.233 115.441C216.698 115.821 216.181 115.603 216.083 114.95L209.36 70.132C209.248 69.3898 209.652 68.6289 210.255 68.4349L227.09 63.0297C227.547 62.8826 227.98 63.2876 228.059 63.9323L232.91 103.181Z" fill="url(#paint13_linear)"/>
<path d="M232.794 67.0449C232.794 67.0449 228.437 64.2304 225.624 68.709C222.562 73.5844 221.897 75.7599 221.897 75.7599C221.897 75.7599 222.053 79.2205 224.856 78.0465C227.659 76.8724 229.453 74.2984 229.453 74.2984C229.453 74.2984 226.039 78.7924 226.943 81.9157C227.847 85.039 228.306 88.9374 231.388 88.9173C234.469 88.8972 236.756 87.4162 237.314 82.6614C237.872 77.9059 233.093 70.5853 233.093 70.5853C233.093 70.5853 234.332 69.0177 232.794 67.0449Z" fill="#693E51"/>
<path d="M87.001 132C92.112 117.596 102.501 114 108.001 114C116.829 114 113.501 126.5 111.501 137C109.411 147.973 99.4333 185.561 91.0699 196.713C82.7065 207.864 73.4136 201.093 73.4136 187.42C73.4136 174.875 81.89 146.403 87.001 132Z" fill="url(#paint14_linear)"/>
<path d="M64.5856 189.743C69.4178 200.151 78.9893 202.443 83.171 202.288C87.8174 200.894 92.9284 196.248 94.3223 186.955C95.7162 177.662 83.171 164.188 74.3429 154.895C65.5149 145.603 63.7181 132.5 60.001 132.5C56.284 132.5 48.7879 133.987 49.2526 140.956C49.7172 147.926 58.5453 176.733 64.5856 189.743Z" fill="url(#paint15_linear)"/>
<path d="M42.0721 129.675C43.0362 133.812 46.762 136.777 50.6701 137.961C51.8424 138.316 57.4199 136.139 60.0493 134.015C63.9574 130.859 63.5667 125.729 63.9575 123.756C64.3483 121.783 64.4458 118.655 68.6471 117.443C70.9921 116.767 69.8197 114.681 68.6471 114.287C66.4226 113.538 62.316 113.892 61.6125 116.259C60.4401 120.205 58.8771 116.654 57.7047 114.681C56.5322 112.708 56.1414 103.633 55.7506 97.3196C55.4331 92.1903 51.8426 93.7686 51.8425 96.9251C51.8425 98.5034 52.2333 107.973 51.4517 109.552C49.4976 106.395 47.1529 99.687 45.9804 97.7141C45.0425 96.1358 41.877 96.1359 42.854 100.082C43.831 104.027 45.9805 110.735 47.1529 113.497C46.3713 113.234 43.3291 116.112 41.2908 118.627C38.7328 121.783 40.5091 122.967 42.0721 129.675Z" fill="#693E51"/>
<path d="M46.4445 112.181C44.796 111.278 41.8603 113.987 42.0918 114.964L42.3234 115.942C42.0944 115.44 41.2931 114.889 39.9194 116.694C38.2022 118.95 39.2325 121.582 40.2628 121.959C41.2931 122.335 45.0708 125.343 46.4445 124.967C47.5435 124.666 47.5893 122.836 47.4748 121.959C47.9327 122.209 49.1919 122.485 50.5656 121.582C52.2828 120.454 48.5051 113.309 46.4445 112.181Z" fill="url(#paint16_linear)"/>
<defs>
<radialGradient id="paint0_radial" cx="0" cy="0" r="1" gradientUnits="userSpaceOnUse" gradientTransform="translate(125.2 482.688) rotate(180) scale(123.396 7.91698)">
<stop stop-color="#B2B7FF"/>
<stop offset="0.9036" stop-color="white" stop-opacity="0"/>
</radialGradient>
<linearGradient id="paint1_linear" x1="162.302" y1="464.869" x2="72.7046" y2="469.63" gradientUnits="userSpaceOnUse">
<stop offset="0.0097" stop-color="#5E3448"/>
<stop offset="0.9647" stop-color="#7F465D"/>
</linearGradient>
<linearGradient id="paint2_linear" x1="177.351" y1="242.806" x2="134.22" y2="476.659" gradientUnits="userSpaceOnUse">
<stop offset="0.013" stop-color="#F1F1FF"/>
<stop offset="1" stop-color="#E3E4FF"/>
</linearGradient>
<linearGradient id="paint3_linear" x1="166.573" y1="463.918" x2="76.975" y2="468.679" gradientUnits="userSpaceOnUse">
<stop offset="0.0097" stop-color="#5E3448"/>
<stop offset="0.9647" stop-color="#7F465D"/>
</linearGradient>
<linearGradient id="paint4_linear" x1="197.788" y1="480.706" x2="143.235" y2="487.155" gradientUnits="userSpaceOnUse">
<stop stop-color="#FF0068"/>
<stop offset="1" stop-color="#9F04B7"/>
</linearGradient>
<linearGradient id="paint5_linear" x1="101.85" y1="473.45" x2="42.4598" y2="487.693" gradientUnits="userSpaceOnUse">
<stop stop-color="#FF0068"/>
<stop offset="1" stop-color="#9F04B7"/>
</linearGradient>
<linearGradient id="paint6_linear" x1="51.4618" y1="462.342" x2="226.227" y2="278.957" gradientUnits="userSpaceOnUse">
<stop offset="0.013" stop-color="#A6ABEE"/>
<stop offset="0.6325" stop-color="#CFD1F9"/>
<stop offset="1" stop-color="#E7E8FF"/>
</linearGradient>
<linearGradient id="paint7_linear" x1="130.038" y1="234.316" x2="87.2928" y2="469.367" gradientUnits="userSpaceOnUse">
<stop offset="0.013" stop-color="#F1F1FF"/>
<stop offset="1" stop-color="#E3E4FF"/>
</linearGradient>
<linearGradient id="paint8_linear" x1="-8.88449" y1="489.401" x2="154.125" y2="230.781" gradientUnits="userSpaceOnUse">
<stop offset="0.013" stop-color="#A6ABEE"/>
<stop offset="0.6325" stop-color="#CFD1F9"/>
<stop offset="1" stop-color="#E7E8FF"/>
</linearGradient>
<linearGradient id="paint9_linear" x1="169.272" y1="124.346" x2="98.1875" y2="120.341" gradientUnits="userSpaceOnUse">
<stop stop-color="#A2A7E8"/>
<stop offset="1" stop-color="#B2B7FF"/>
</linearGradient>
<linearGradient id="paint10_linear" x1="119.123" y1="70.9781" x2="142.17" y2="74.119" gradientUnits="userSpaceOnUse">
<stop offset="0.0097" stop-color="#5E3448"/>
<stop offset="0.9647" stop-color="#7F465D"/>
</linearGradient>
<linearGradient id="paint11_linear" x1="110.229" y1="226.094" x2="140.598" y2="125.252" gradientUnits="userSpaceOnUse">
<stop stop-color="#A2A7E8"/>
<stop offset="1" stop-color="#B2B7FF"/>
</linearGradient>
<linearGradient id="paint12_linear" x1="123.026" y1="150.575" x2="81.9104" y2="190.638" gradientUnits="userSpaceOnUse">
<stop offset="0.013" stop-color="#A6ABEE"/>
<stop offset="0.6325" stop-color="#CFD1F9"/>
<stop offset="1" stop-color="#E7E8FF"/>
</linearGradient>
<linearGradient id="paint13_linear" x1="219.627" y1="53.1533" x2="220.601" y2="110.866" gradientUnits="userSpaceOnUse">
<stop stop-color="#FF0068"/>
<stop offset="1" stop-color="#9F04B7"/>
</linearGradient>
<linearGradient id="paint14_linear" x1="82.9581" y1="215.093" x2="123.735" y2="140.474" gradientUnits="userSpaceOnUse">
<stop stop-color="#A2A7E8"/>
<stop offset="1" stop-color="#B2B7FF"/>
</linearGradient>
<linearGradient id="paint15_linear" x1="59.912" y1="212.387" x2="85.5849" y2="145.799" gradientUnits="userSpaceOnUse">
<stop stop-color="#A2A7E8"/>
<stop offset="1" stop-color="#B2B7FF"/>
</linearGradient>
<linearGradient id="paint16_linear" x1="42.4352" y1="113.46" x2="48.5006" y2="130.816" gradientUnits="userSpaceOnUse">
<stop stop-color="#77485D"/>
<stop offset="1" stop-color="#693E51"/>
</linearGradient>
</defs>
</svg>
